<?xml version="1.0" encoding="utf-8" standalone="no"?>
<!DOCTYPE svg PUBLIC "-//W3C//DTD SVG 1.1//EN"
  "http://www.w3.org/Graphics/SVG/1.1/DTD/svg11.dtd">
<!-- Created with matplotlib (https://matplotlib.org/) -->
<svg height="376.651094pt" version="1.1" viewBox="0 0 830.93875 376.651094" width="830.93875pt" xmlns="http://www.w3.org/2000/svg" xmlns:xlink="http://www.w3.org/1999/xlink">
 <metadata>
  <rdf:RDF xmlns:cc="http://creativecommons.org/ns#" xmlns:dc="http://purl.org/dc/elements/1.1/" xmlns:rdf="http://www.w3.org/1999/02/22-rdf-syntax-ns#">
   <cc:Work>
    <dc:type rdf:resource="http://purl.org/dc/dcmitype/StillImage"/>
    <dc:date>2022-11-25T10:01:03.009950</dc:date>
    <dc:format>image/svg+xml</dc:format>
    <dc:creator>
     <cc:Agent>
      <dc:title>Matplotlib v3.3.4, https://matplotlib.org/</dc:title>
     </cc:Agent>
    </dc:creator>
   </cc:Work>
  </rdf:RDF>
 </metadata>
 <defs>
  <style type="text/css">*{stroke-linecap:butt;stroke-linejoin:round;}</style>
 </defs>
 <g id="figure_1">
  <g id="patch_1">
   <path d="M 0 376.651094 
L 830.93875 376.651094 
L 830.93875 0 
L 0 0 
z
" style="fill:none;"/>
  </g>
  <g id="axes_1">
   <g id="patch_2">
    <path d="M 42.53875 337.159219 
L 823.73875 337.159219 
L 823.73875 10.999219 
L 42.53875 10.999219 
z
" style="fill:#ffffff;"/>
   </g>
   <g id="patch_3">
    <path clip-path="url(#pe3bb90cc1e)" d="M 78.047841 337.159219 
L 83.510778 337.159219 
L 83.510778 89.277619 
L 78.047841 89.277619 
z
" style="fill:#4169e1;"/>
   </g>
   <g id="patch_4">
    <path clip-path="url(#pe3bb90cc1e)" d="M 99.899589 337.159219 
L 105.362526 337.159219 
L 105.362526 76.231219 
L 99.899589 76.231219 
z
" style="fill:#4169e1;"/>
   </g>
   <g id="patch_5">
    <path clip-path="url(#pe3bb90cc1e)" d="M 121.751337 337.159219 
L 127.214274 337.159219 
L 127.214274 102.324019 
L 121.751337 102.324019 
z
" style="fill:#4169e1;"/>
   </g>
   <g id="patch_6">
    <path clip-path="url(#pe3bb90cc1e)" d="M 143.603086 337.159219 
L 149.066023 337.159219 
L 149.066023 102.324019 
L 143.603086 102.324019 
z
" style="fill:#4169e1;"/>
   </g>
   <g id="patch_7">
    <path clip-path="url(#pe3bb90cc1e)" d="M 165.454834 337.159219 
L 170.917771 337.159219 
L 170.917771 89.277619 
L 165.454834 89.277619 
z
" style="fill:#4169e1;"/>
   </g>
   <g id="patch_8">
    <path clip-path="url(#pe3bb90cc1e)" d="M 187.306582 337.159219 
L 192.769519 337.159219 
L 192.769519 89.277619 
L 187.306582 89.277619 
z
" style="fill:#4169e1;"/>
   </g>
   <g id="patch_9">
    <path clip-path="url(#pe3bb90cc1e)" d="M 209.15833 337.159219 
L 214.621267 337.159219 
L 214.621267 89.277619 
L 209.15833 89.277619 
z
" style="fill:#4169e1;"/>
   </g>
   <g id="patch_10">
    <path clip-path="url(#pe3bb90cc1e)" d="M 231.010079 337.159219 
L 236.473016 337.159219 
L 236.473016 89.277619 
L 231.010079 89.277619 
z
" style="fill:#4169e1;"/>
   </g>
   <g id="patch_11">
    <path clip-path="url(#pe3bb90cc1e)" d="M 252.861827 337.159219 
L 258.324764 337.159219 
L 258.324764 115.370419 
L 252.861827 115.370419 
z
" style="fill:#4169e1;"/>
   </g>
   <g id="patch_12">
    <path clip-path="url(#pe3bb90cc1e)" d="M 274.713575 337.159219 
L 280.176512 337.159219 
L 280.176512 102.324019 
L 274.713575 102.324019 
z
" style="fill:#4169e1;"/>
   </g>
   <g id="patch_13">
    <path clip-path="url(#pe3bb90cc1e)" d="M 296.565323 337.159219 
L 302.02826 337.159219 
L 302.02826 89.277619 
L 296.565323 89.277619 
z
" style="fill:#4169e1;"/>
   </g>
   <g id="patch_14">
    <path clip-path="url(#pe3bb90cc1e)" d="M 318.417072 337.159219 
L 323.880009 337.159219 
L 323.880009 89.277619 
L 318.417072 89.277619 
z
" style="fill:#4169e1;"/>
   </g>
   <g id="patch_15">
    <path clip-path="url(#pe3bb90cc1e)" d="M 340.26882 337.159219 
L 345.731757 337.159219 
L 345.731757 115.370419 
L 340.26882 115.370419 
z
" style="fill:#4169e1;"/>
   </g>
   <g id="patch_16">
    <path clip-path="url(#pe3bb90cc1e)" d="M 362.120568 337.159219 
L 367.583505 337.159219 
L 367.583505 89.277619 
L 362.120568 89.277619 
z
" style="fill:#4169e1;"/>
   </g>
   <g id="patch_17">
    <path clip-path="url(#pe3bb90cc1e)" d="M 383.972316 337.159219 
L 389.435253 337.159219 
L 389.435253 89.277619 
L 383.972316 89.277619 
z
" style="fill:#4169e1;"/>
   </g>
   <g id="patch_18">
    <path clip-path="url(#pe3bb90cc1e)" d="M 405.824065 337.159219 
L 411.287002 337.159219 
L 411.287002 102.324019 
L 405.824065 102.324019 
z
" style="fill:#4169e1;"/>
   </g>
   <g id="patch_19">
    <path clip-path="url(#pe3bb90cc1e)" d="M 427.675813 337.159219 
L 433.13875 337.159219 
L 433.13875 89.277619 
L 427.675813 89.277619 
z
" style="fill:#4169e1;"/>
   </g>
   <g id="patch_20">
    <path clip-path="url(#pe3bb90cc1e)" d="M 449.527561 337.159219 
L 454.990498 337.159219 
L 454.990498 89.277619 
L 449.527561 89.277619 
z
" style="fill:#4169e1;"/>
   </g>
   <g id="patch_21">
    <path clip-path="url(#pe3bb90cc1e)" d="M 471.379309 337.159219 
L 476.842247 337.159219 
L 476.842247 76.231219 
L 471.379309 76.231219 
z
" style="fill:#4169e1;"/>
   </g>
   <g id="patch_22">
    <path clip-path="url(#pe3bb90cc1e)" d="M 493.231058 337.159219 
L 498.693995 337.159219 
L 498.693995 102.324019 
L 493.231058 102.324019 
z
" style="fill:#4169e1;"/>
   </g>
   <g id="patch_23">
    <path clip-path="url(#pe3bb90cc1e)" d="M 515.082806 337.159219 
L 520.545743 337.159219 
L 520.545743 128.416819 
L 515.082806 128.416819 
z
" style="fill:#4169e1;"/>
   </g>
   <g id="patch_24">
    <path clip-path="url(#pe3bb90cc1e)" d="M 536.934554 337.159219 
L 542.397491 337.159219 
L 542.397491 102.324019 
L 536.934554 102.324019 
z
" style="fill:#4169e1;"/>
   </g>
   <g id="patch_25">
    <path clip-path="url(#pe3bb90cc1e)" d="M 558.786302 337.159219 
L 564.24924 337.159219 
L 564.24924 115.370419 
L 558.786302 115.370419 
z
" style="fill:#4169e1;"/>
   </g>
   <g id="patch_26">
    <path clip-path="url(#pe3bb90cc1e)" d="M 580.638051 337.159219 
L 586.100988 337.159219 
L 586.100988 102.324019 
L 580.638051 102.324019 
z
" style="fill:#4169e1;"/>
   </g>
   <g id="patch_27">
    <path clip-path="url(#pe3bb90cc1e)" d="M 602.489799 337.159219 
L 607.952736 337.159219 
L 607.952736 89.277619 
L 602.489799 89.277619 
z
" style="fill:#4169e1;"/>
   </g>
   <g id="patch_28">
    <path clip-path="url(#pe3bb90cc1e)" d="M 624.341547 337.159219 
L 629.804484 337.159219 
L 629.804484 102.324019 
L 624.341547 102.324019 
z
" style="fill:#4169e1;"/>
   </g>
   <g id="patch_29">
    <path clip-path="url(#pe3bb90cc1e)" d="M 646.193295 337.159219 
L 651.656233 337.159219 
L 651.656233 89.277619 
L 646.193295 89.277619 
z
" style="fill:#4169e1;"/>
   </g>
   <g id="patch_30">
    <path clip-path="url(#pe3bb90cc1e)" d="M 668.045044 337.159219 
L 673.507981 337.159219 
L 673.507981 102.324019 
L 668.045044 102.324019 
z
" style="fill:#4169e1;"/>
   </g>
   <g id="patch_31">
    <path clip-path="url(#pe3bb90cc1e)" d="M 689.896792 337.159219 
L 695.359729 337.159219 
L 695.359729 76.231219 
L 689.896792 76.231219 
z
" style="fill:#4169e1;"/>
   </g>
   <g id="patch_32">
    <path clip-path="url(#pe3bb90cc1e)" d="M 711.74854 337.159219 
L 717.211477 337.159219 
L 717.211477 89.277619 
L 711.74854 89.277619 
z
" style="fill:#4169e1;"/>
   </g>
   <g id="patch_33">
    <path clip-path="url(#pe3bb90cc1e)" d="M 733.600288 337.159219 
L 739.063226 337.159219 
L 739.063226 76.231219 
L 733.600288 76.231219 
z
" style="fill:#4169e1;"/>
   </g>
   <g id="patch_34">
    <path clip-path="url(#pe3bb90cc1e)" d="M 755.452037 337.159219 
L 760.914974 337.159219 
L 760.914974 128.416819 
L 755.452037 128.416819 
z
" style="fill:#4169e1;"/>
   </g>
   <g id="patch_35">
    <path clip-path="url(#pe3bb90cc1e)" d="M 777.303785 337.159219 
L 782.766722 337.159219 
L 782.766722 89.277619 
L 777.303785 89.277619 
z
" style="fill:#4169e1;"/>
   </g>
   <g id="patch_36">
    <path clip-path="url(#pe3bb90cc1e)" d="M 78.047841 89.277619 
L 83.510778 89.277619 
L 83.510778 50.138419 
L 78.047841 50.138419 
z
" style="fill:#ffa500;"/>
   </g>
   <g id="patch_37">
    <path clip-path="url(#pe3bb90cc1e)" d="M 99.899589 76.231219 
L 105.362526 76.231219 
L 105.362526 50.138419 
L 99.899589 50.138419 
z
" style="fill:#ffa500;"/>
   </g>
   <g id="patch_38">
    <path clip-path="url(#pe3bb90cc1e)" d="M 121.751337 102.324019 
L 127.214274 102.324019 
L 127.214274 50.138419 
L 121.751337 50.138419 
z
" style="fill:#ffa500;"/>
   </g>
   <g id="patch_39">
    <path clip-path="url(#pe3bb90cc1e)" d="M 143.603086 102.324019 
L 149.066023 102.324019 
L 149.066023 50.138419 
L 143.603086 50.138419 
z
" style="fill:#ffa500;"/>
   </g>
   <g id="patch_40">
    <path clip-path="url(#pe3bb90cc1e)" d="M 165.454834 89.277619 
L 170.917771 89.277619 
L 170.917771 50.138419 
L 165.454834 50.138419 
z
" style="fill:#ffa500;"/>
   </g>
   <g id="patch_41">
    <path clip-path="url(#pe3bb90cc1e)" d="M 187.306582 89.277619 
L 192.769519 89.277619 
L 192.769519 50.138419 
L 187.306582 50.138419 
z
" style="fill:#ffa500;"/>
   </g>
   <g id="patch_42">
    <path clip-path="url(#pe3bb90cc1e)" d="M 209.15833 89.277619 
L 214.621267 89.277619 
L 214.621267 50.138419 
L 209.15833 50.138419 
z
" style="fill:#ffa500;"/>
   </g>
   <g id="patch_43">
    <path clip-path="url(#pe3bb90cc1e)" d="M 231.010079 89.277619 
L 236.473016 89.277619 
L 236.473016 50.138419 
L 231.010079 50.138419 
z
" style="fill:#ffa500;"/>
   </g>
   <g id="patch_44">
    <path clip-path="url(#pe3bb90cc1e)" d="M 252.861827 115.370419 
L 258.324764 115.370419 
L 258.324764 50.138419 
L 252.861827 50.138419 
z
" style="fill:#ffa500;"/>
   </g>
   <g id="patch_45">
    <path clip-path="url(#pe3bb90cc1e)" d="M 274.713575 102.324019 
L 280.176512 102.324019 
L 280.176512 50.138419 
L 274.713575 50.138419 
z
" style="fill:#ffa500;"/>
   </g>
   <g id="patch_46">
    <path clip-path="url(#pe3bb90cc1e)" d="M 296.565323 89.277619 
L 302.02826 89.277619 
L 302.02826 50.138419 
L 296.565323 50.138419 
z
" style="fill:#ffa500;"/>
   </g>
   <g id="patch_47">
    <path clip-path="url(#pe3bb90cc1e)" d="M 318.417072 89.277619 
L 323.880009 89.277619 
L 323.880009 50.138419 
L 318.417072 50.138419 
z
" style="fill:#ffa500;"/>
   </g>
   <g id="patch_48">
    <path clip-path="url(#pe3bb90cc1e)" d="M 340.26882 115.370419 
L 345.731757 115.370419 
L 345.731757 50.138419 
L 340.26882 50.138419 
z
" style="fill:#ffa500;"/>
   </g>
   <g id="patch_49">
    <path clip-path="url(#pe3bb90cc1e)" d="M 362.120568 89.277619 
L 367.583505 89.277619 
L 367.583505 50.138419 
L 362.120568 50.138419 
z
" style="fill:#ffa500;"/>
   </g>
   <g id="patch_50">
    <path clip-path="url(#pe3bb90cc1e)" d="M 383.972316 89.277619 
L 389.435253 89.277619 
L 389.435253 50.138419 
L 383.972316 50.138419 
z
" style="fill:#ffa500;"/>
   </g>
   <g id="patch_51">
    <path clip-path="url(#pe3bb90cc1e)" d="M 405.824065 102.324019 
L 411.287002 102.324019 
L 411.287002 50.138419 
L 405.824065 50.138419 
z
" style="fill:#ffa500;"/>
   </g>
   <g id="patch_52">
    <path clip-path="url(#pe3bb90cc1e)" d="M 427.675813 89.277619 
L 433.13875 89.277619 
L 433.13875 50.138419 
L 427.675813 50.138419 
z
" style="fill:#ffa500;"/>
   </g>
   <g id="patch_53">
    <path clip-path="url(#pe3bb90cc1e)" d="M 449.527561 89.277619 
L 454.990498 89.277619 
L 454.990498 50.138419 
L 449.527561 50.138419 
z
" style="fill:#ffa500;"/>
   </g>
   <g id="patch_54">
    <path clip-path="url(#pe3bb90cc1e)" d="M 471.379309 76.231219 
L 476.842247 76.231219 
L 476.842247 50.138419 
L 471.379309 50.138419 
z
" style="fill:#ffa500;"/>
   </g>
   <g id="patch_55">
    <path clip-path="url(#pe3bb90cc1e)" d="M 493.231058 102.324019 
L 498.693995 102.324019 
L 498.693995 50.138419 
L 493.231058 50.138419 
z
" style="fill:#ffa500;"/>
   </g>
   <g id="patch_56">
    <path clip-path="url(#pe3bb90cc1e)" d="M 515.082806 128.416819 
L 520.545743 128.416819 
L 520.545743 50.138419 
L 515.082806 50.138419 
z
" style="fill:#ffa500;"/>
   </g>
   <g id="patch_57">
    <path clip-path="url(#pe3bb90cc1e)" d="M 536.934554 102.324019 
L 542.397491 102.324019 
L 542.397491 50.138419 
L 536.934554 50.138419 
z
" style="fill:#ffa500;"/>
   </g>
   <g id="patch_58">
    <path clip-path="url(#pe3bb90cc1e)" d="M 558.786302 115.370419 
L 564.24924 115.370419 
L 564.24924 50.138419 
L 558.786302 50.138419 
z
" style="fill:#ffa500;"/>
   </g>
   <g id="patch_59">
    <path clip-path="url(#pe3bb90cc1e)" d="M 580.638051 102.324019 
L 586.100988 102.324019 
L 586.100988 50.138419 
L 580.638051 50.138419 
z
" style="fill:#ffa500;"/>
   </g>
   <g id="patch_60">
    <path clip-path="url(#pe3bb90cc1e)" d="M 602.489799 89.277619 
L 607.952736 89.277619 
L 607.952736 50.138419 
L 602.489799 50.138419 
z
" style="fill:#ffa500;"/>
   </g>
   <g id="patch_61">
    <path clip-path="url(#pe3bb90cc1e)" d="M 624.341547 102.324019 
L 629.804484 102.324019 
L 629.804484 50.138419 
L 624.341547 50.138419 
z
" style="fill:#ffa500;"/>
   </g>
   <g id="patch_62">
    <path clip-path="url(#pe3bb90cc1e)" d="M 646.193295 89.277619 
L 651.656233 89.277619 
L 651.656233 50.138419 
L 646.193295 50.138419 
z
" style="fill:#ffa500;"/>
   </g>
   <g id="patch_63">
    <path clip-path="url(#pe3bb90cc1e)" d="M 668.045044 102.324019 
L 673.507981 102.324019 
L 673.507981 50.138419 
L 668.045044 50.138419 
z
" style="fill:#ffa500;"/>
   </g>
   <g id="patch_64">
    <path clip-path="url(#pe3bb90cc1e)" d="M 689.896792 76.231219 
L 695.359729 76.231219 
L 695.359729 50.138419 
L 689.896792 50.138419 
z
" style="fill:#ffa500;"/>
   </g>
   <g id="patch_65">
    <path clip-path="url(#pe3bb90cc1e)" d="M 711.74854 89.277619 
L 717.211477 89.277619 
L 717.211477 50.138419 
L 711.74854 50.138419 
z
" style="fill:#ffa500;"/>
   </g>
   <g id="patch_66">
    <path clip-path="url(#pe3bb90cc1e)" d="M 733.600288 76.231219 
L 739.063226 76.231219 
L 739.063226 50.138419 
L 733.600288 50.138419 
z
" style="fill:#ffa500;"/>
   </g>
   <g id="patch_67">
    <path clip-path="url(#pe3bb90cc1e)" d="M 755.452037 128.416819 
L 760.914974 128.416819 
L 760.914974 50.138419 
L 755.452037 50.138419 
z
" style="fill:#ffa500;"/>
   </g>
   <g id="patch_68">
    <path clip-path="url(#pe3bb90cc1e)" d="M 777.303785 89.277619 
L 782.766722 89.277619 
L 782.766722 50.138419 
L 777.303785 50.138419 
z
" style="fill:#ffa500;"/>
   </g>
   <g id="patch_69">
    <path clip-path="url(#pe3bb90cc1e)" d="M 83.510778 337.159219 
L 88.973715 337.159219 
L 88.973715 167.556019 
L 83.510778 167.556019 
z
" style="fill:#b0c4de;"/>
   </g>
   <g id="patch_70">
    <path clip-path="url(#pe3bb90cc1e)" d="M 105.362526 337.159219 
L 110.825463 337.159219 
L 110.825463 141.463219 
L 105.362526 141.463219 
z
" style="fill:#b0c4de;"/>
   </g>
   <g id="patch_71">
    <path clip-path="url(#pe3bb90cc1e)" d="M 127.214274 337.159219 
L 132.677212 337.159219 
L 132.677212 206.695219 
L 127.214274 206.695219 
z
" style="fill:#b0c4de;"/>
   </g>
   <g id="patch_72">
    <path clip-path="url(#pe3bb90cc1e)" d="M 149.066023 337.159219 
L 154.52896 337.159219 
L 154.52896 206.695219 
L 149.066023 206.695219 
z
" style="fill:#b0c4de;"/>
   </g>
   <g id="patch_73">
    <path clip-path="url(#pe3bb90cc1e)" d="M 170.917771 337.159219 
L 176.380708 337.159219 
L 176.380708 167.556019 
L 170.917771 167.556019 
z
" style="fill:#b0c4de;"/>
   </g>
   <g id="patch_74">
    <path clip-path="url(#pe3bb90cc1e)" d="M 192.769519 337.159219 
L 198.232456 337.159219 
L 198.232456 154.509619 
L 192.769519 154.509619 
z
" style="fill:#b0c4de;"/>
   </g>
   <g id="patch_75">
    <path clip-path="url(#pe3bb90cc1e)" d="M 214.621267 337.159219 
L 220.084205 337.159219 
L 220.084205 193.648819 
L 214.621267 193.648819 
z
" style="fill:#b0c4de;"/>
   </g>
   <g id="patch_76">
    <path clip-path="url(#pe3bb90cc1e)" d="M 236.473016 337.159219 
L 241.935953 337.159219 
L 241.935953 219.741619 
L 236.473016 219.741619 
z
" style="fill:#b0c4de;"/>
   </g>
   <g id="patch_77">
    <path clip-path="url(#pe3bb90cc1e)" d="M 258.324764 337.159219 
L 263.787701 337.159219 
L 263.787701 219.741619 
L 258.324764 219.741619 
z
" style="fill:#b0c4de;"/>
   </g>
   <g id="patch_78">
    <path clip-path="url(#pe3bb90cc1e)" d="M 280.176512 337.159219 
L 285.639449 337.159219 
L 285.639449 206.695219 
L 280.176512 206.695219 
z
" style="fill:#b0c4de;"/>
   </g>
   <g id="patch_79">
    <path clip-path="url(#pe3bb90cc1e)" d="M 302.02826 337.159219 
L 307.491198 337.159219 
L 307.491198 219.741619 
L 302.02826 219.741619 
z
" style="fill:#b0c4de;"/>
   </g>
   <g id="patch_80">
    <path clip-path="url(#pe3bb90cc1e)" d="M 323.880009 337.159219 
L 329.342946 337.159219 
L 329.342946 141.463219 
L 323.880009 141.463219 
z
" style="fill:#b0c4de;"/>
   </g>
   <g id="patch_81">
    <path clip-path="url(#pe3bb90cc1e)" d="M 345.731757 337.159219 
L 351.194694 337.159219 
L 351.194694 193.648819 
L 345.731757 193.648819 
z
" style="fill:#b0c4de;"/>
   </g>
   <g id="patch_82">
    <path clip-path="url(#pe3bb90cc1e)" d="M 367.583505 337.159219 
L 373.046442 337.159219 
L 373.046442 115.370419 
L 367.583505 115.370419 
z
" style="fill:#b0c4de;"/>
   </g>
   <g id="patch_83">
    <path clip-path="url(#pe3bb90cc1e)" d="M 389.435253 337.159219 
L 394.898191 337.159219 
L 394.898191 180.602419 
L 389.435253 180.602419 
z
" style="fill:#b0c4de;"/>
   </g>
   <g id="patch_84">
    <path clip-path="url(#pe3bb90cc1e)" d="M 411.287002 337.159219 
L 416.749939 337.159219 
L 416.749939 206.695219 
L 411.287002 206.695219 
z
" style="fill:#b0c4de;"/>
   </g>
   <g id="patch_85">
    <path clip-path="url(#pe3bb90cc1e)" d="M 433.13875 337.159219 
L 438.601687 337.159219 
L 438.601687 167.556019 
L 433.13875 167.556019 
z
" style="fill:#b0c4de;"/>
   </g>
   <g id="patch_86">
    <path clip-path="url(#pe3bb90cc1e)" d="M 454.990498 337.159219 
L 460.453435 337.159219 
L 460.453435 219.741619 
L 454.990498 219.741619 
z
" style="fill:#b0c4de;"/>
   </g>
   <g id="patch_87">
    <path clip-path="url(#pe3bb90cc1e)" d="M 476.842247 337.159219 
L 482.305184 337.159219 
L 482.305184 206.695219 
L 476.842247 206.695219 
z
" style="fill:#b0c4de;"/>
   </g>
   <g id="patch_88">
    <path clip-path="url(#pe3bb90cc1e)" d="M 498.693995 337.159219 
L 504.156932 337.159219 
L 504.156932 206.695219 
L 498.693995 206.695219 
z
" style="fill:#b0c4de;"/>
   </g>
   <g id="patch_89">
    <path clip-path="url(#pe3bb90cc1e)" d="M 520.545743 337.159219 
L 526.00868 337.159219 
L 526.00868 232.788019 
L 520.545743 232.788019 
z
" style="fill:#b0c4de;"/>
   </g>
   <g id="patch_90">
    <path clip-path="url(#pe3bb90cc1e)" d="M 542.397491 337.159219 
L 547.860428 337.159219 
L 547.860428 219.741619 
L 542.397491 219.741619 
z
" style="fill:#b0c4de;"/>
   </g>
   <g id="patch_91">
    <path clip-path="url(#pe3bb90cc1e)" d="M 564.24924 337.159219 
L 569.712177 337.159219 
L 569.712177 128.416819 
L 564.24924 128.416819 
z
" style="fill:#b0c4de;"/>
   </g>
   <g id="patch_92">
    <path clip-path="url(#pe3bb90cc1e)" d="M 586.100988 337.159219 
L 591.563925 337.159219 
L 591.563925 206.695219 
L 586.100988 206.695219 
z
" style="fill:#b0c4de;"/>
   </g>
   <g id="patch_93">
    <path clip-path="url(#pe3bb90cc1e)" d="M 607.952736 337.159219 
L 613.415673 337.159219 
L 613.415673 180.602419 
L 607.952736 180.602419 
z
" style="fill:#b0c4de;"/>
   </g>
   <g id="patch_94">
    <path clip-path="url(#pe3bb90cc1e)" d="M 629.804484 337.159219 
L 635.267421 337.159219 
L 635.267421 193.648819 
L 629.804484 193.648819 
z
" style="fill:#b0c4de;"/>
   </g>
   <g id="patch_95">
    <path clip-path="url(#pe3bb90cc1e)" d="M 651.656233 337.159219 
L 657.11917 337.159219 
L 657.11917 193.648819 
L 651.656233 193.648819 
z
" style="fill:#b0c4de;"/>
   </g>
   <g id="patch_96">
    <path clip-path="url(#pe3bb90cc1e)" d="M 673.507981 337.159219 
L 678.970918 337.159219 
L 678.970918 180.602419 
L 673.507981 180.602419 
z
" style="fill:#b0c4de;"/>
   </g>
   <g id="patch_97">
    <path clip-path="url(#pe3bb90cc1e)" d="M 695.359729 337.159219 
L 700.822666 337.159219 
L 700.822666 102.324019 
L 695.359729 102.324019 
z
" style="fill:#b0c4de;"/>
   </g>
   <g id="patch_98">
    <path clip-path="url(#pe3bb90cc1e)" d="M 717.211477 337.159219 
L 722.674414 337.159219 
L 722.674414 154.509619 
L 717.211477 154.509619 
z
" style="fill:#b0c4de;"/>
   </g>
   <g id="patch_99">
    <path clip-path="url(#pe3bb90cc1e)" d="M 739.063226 337.159219 
L 744.526163 337.159219 
L 744.526163 193.648819 
L 739.063226 193.648819 
z
" style="fill:#b0c4de;"/>
   </g>
   <g id="patch_100">
    <path clip-path="url(#pe3bb90cc1e)" d="M 760.914974 337.159219 
L 766.377911 337.159219 
L 766.377911 219.741619 
L 760.914974 219.741619 
z
" style="fill:#b0c4de;"/>
   </g>
   <g id="patch_101">
    <path clip-path="url(#pe3bb90cc1e)" d="M 782.766722 337.159219 
L 788.229659 337.159219 
L 788.229659 167.556019 
L 782.766722 167.556019 
z
" style="fill:#b0c4de;"/>
   </g>
   <g id="patch_102">
    <path clip-path="url(#pe3bb90cc1e)" d="M 83.510778 167.556019 
L 88.973715 167.556019 
L 88.973715 50.138419 
L 83.510778 50.138419 
z
" style="fill:#ffe4c4;"/>
   </g>
   <g id="patch_103">
    <path clip-path="url(#pe3bb90cc1e)" d="M 105.362526 141.463219 
L 110.825463 141.463219 
L 110.825463 50.138419 
L 105.362526 50.138419 
z
" style="fill:#ffe4c4;"/>
   </g>
   <g id="patch_104">
    <path clip-path="url(#pe3bb90cc1e)" d="M 127.214274 206.695219 
L 132.677212 206.695219 
L 132.677212 50.138419 
L 127.214274 50.138419 
z
" style="fill:#ffe4c4;"/>
   </g>
   <g id="patch_105">
    <path clip-path="url(#pe3bb90cc1e)" d="M 149.066023 206.695219 
L 154.52896 206.695219 
L 154.52896 50.138419 
L 149.066023 50.138419 
z
" style="fill:#ffe4c4;"/>
   </g>
   <g id="patch_106">
    <path clip-path="url(#pe3bb90cc1e)" d="M 170.917771 167.556019 
L 176.380708 167.556019 
L 176.380708 50.138419 
L 170.917771 50.138419 
z
" style="fill:#ffe4c4;"/>
   </g>
   <g id="patch_107">
    <path clip-path="url(#pe3bb90cc1e)" d="M 192.769519 154.509619 
L 198.232456 154.509619 
L 198.232456 50.138419 
L 192.769519 50.138419 
z
" style="fill:#ffe4c4;"/>
   </g>
   <g id="patch_108">
    <path clip-path="url(#pe3bb90cc1e)" d="M 214.621267 193.648819 
L 220.084205 193.648819 
L 220.084205 50.138419 
L 214.621267 50.138419 
z
" style="fill:#ffe4c4;"/>
   </g>
   <g id="patch_109">
    <path clip-path="url(#pe3bb90cc1e)" d="M 236.473016 219.741619 
L 241.935953 219.741619 
L 241.935953 50.138419 
L 236.473016 50.138419 
z
" style="fill:#ffe4c4;"/>
   </g>
   <g id="patch_110">
    <path clip-path="url(#pe3bb90cc1e)" d="M 258.324764 219.741619 
L 263.787701 219.741619 
L 263.787701 50.138419 
L 258.324764 50.138419 
z
" style="fill:#ffe4c4;"/>
   </g>
   <g id="patch_111">
    <path clip-path="url(#pe3bb90cc1e)" d="M 280.176512 206.695219 
L 285.639449 206.695219 
L 285.639449 50.138419 
L 280.176512 50.138419 
z
" style="fill:#ffe4c4;"/>
   </g>
   <g id="patch_112">
    <path clip-path="url(#pe3bb90cc1e)" d="M 302.02826 219.741619 
L 307.491198 219.741619 
L 307.491198 50.138419 
L 302.02826 50.138419 
z
" style="fill:#ffe4c4;"/>
   </g>
   <g id="patch_113">
    <path clip-path="url(#pe3bb90cc1e)" d="M 323.880009 141.463219 
L 329.342946 141.463219 
L 329.342946 50.138419 
L 323.880009 50.138419 
z
" style="fill:#ffe4c4;"/>
   </g>
   <g id="patch_114">
    <path clip-path="url(#pe3bb90cc1e)" d="M 345.731757 193.648819 
L 351.194694 193.648819 
L 351.194694 50.138419 
L 345.731757 50.138419 
z
" style="fill:#ffe4c4;"/>
   </g>
   <g id="patch_115">
    <path clip-path="url(#pe3bb90cc1e)" d="M 367.583505 115.370419 
L 373.046442 115.370419 
L 373.046442 50.138419 
L 367.583505 50.138419 
z
" style="fill:#ffe4c4;"/>
   </g>
   <g id="patch_116">
    <path clip-path="url(#pe3bb90cc1e)" d="M 389.435253 180.602419 
L 394.898191 180.602419 
L 394.898191 50.138419 
L 389.435253 50.138419 
z
" style="fill:#ffe4c4;"/>
   </g>
   <g id="patch_117">
    <path clip-path="url(#pe3bb90cc1e)" d="M 411.287002 206.695219 
L 416.749939 206.695219 
L 416.749939 50.138419 
L 411.287002 50.138419 
z
" style="fill:#ffe4c4;"/>
   </g>
   <g id="patch_118">
    <path clip-path="url(#pe3bb90cc1e)" d="M 433.13875 167.556019 
L 438.601687 167.556019 
L 438.601687 50.138419 
L 433.13875 50.138419 
z
" style="fill:#ffe4c4;"/>
   </g>
   <g id="patch_119">
    <path clip-path="url(#pe3bb90cc1e)" d="M 454.990498 219.741619 
L 460.453435 219.741619 
L 460.453435 50.138419 
L 454.990498 50.138419 
z
" style="fill:#ffe4c4;"/>
   </g>
   <g id="patch_120">
    <path clip-path="url(#pe3bb90cc1e)" d="M 476.842247 206.695219 
L 482.305184 206.695219 
L 482.305184 50.138419 
L 476.842247 50.138419 
z
" style="fill:#ffe4c4;"/>
   </g>
   <g id="patch_121">
    <path clip-path="url(#pe3bb90cc1e)" d="M 498.693995 206.695219 
L 504.156932 206.695219 
L 504.156932 50.138419 
L 498.693995 50.138419 
z
" style="fill:#ffe4c4;"/>
   </g>
   <g id="patch_122">
    <path clip-path="url(#pe3bb90cc1e)" d="M 520.545743 232.788019 
L 526.00868 232.788019 
L 526.00868 50.138419 
L 520.545743 50.138419 
z
" style="fill:#ffe4c4;"/>
   </g>
   <g id="patch_123">
    <path clip-path="url(#pe3bb90cc1e)" d="M 542.397491 219.741619 
L 547.860428 219.741619 
L 547.860428 50.138419 
L 542.397491 50.138419 
z
" style="fill:#ffe4c4;"/>
   </g>
   <g id="patch_124">
    <path clip-path="url(#pe3bb90cc1e)" d="M 564.24924 128.416819 
L 569.712177 128.416819 
L 569.712177 50.138419 
L 564.24924 50.138419 
z
" style="fill:#ffe4c4;"/>
   </g>
   <g id="patch_125">
    <path clip-path="url(#pe3bb90cc1e)" d="M 586.100988 206.695219 
L 591.563925 206.695219 
L 591.563925 50.138419 
L 586.100988 50.138419 
z
" style="fill:#ffe4c4;"/>
   </g>
   <g id="patch_126">
    <path clip-path="url(#pe3bb90cc1e)" d="M 607.952736 180.602419 
L 613.415673 180.602419 
L 613.415673 50.138419 
L 607.952736 50.138419 
z
" style="fill:#ffe4c4;"/>
   </g>
   <g id="patch_127">
    <path clip-path="url(#pe3bb90cc1e)" d="M 629.804484 193.648819 
L 635.267421 193.648819 
L 635.267421 50.138419 
L 629.804484 50.138419 
z
" style="fill:#ffe4c4;"/>
   </g>
   <g id="patch_128">
    <path clip-path="url(#pe3bb90cc1e)" d="M 651.656233 193.648819 
L 657.11917 193.648819 
L 657.11917 50.138419 
L 651.656233 50.138419 
z
" style="fill:#ffe4c4;"/>
   </g>
   <g id="patch_129">
    <path clip-path="url(#pe3bb90cc1e)" d="M 673.507981 180.602419 
L 678.970918 180.602419 
L 678.970918 50.138419 
L 673.507981 50.138419 
z
" style="fill:#ffe4c4;"/>
   </g>
   <g id="patch_130">
    <path clip-path="url(#pe3bb90cc1e)" d="M 695.359729 102.324019 
L 700.822666 102.324019 
L 700.822666 50.138419 
L 695.359729 50.138419 
z
" style="fill:#ffe4c4;"/>
   </g>
   <g id="patch_131">
    <path clip-path="url(#pe3bb90cc1e)" d="M 717.211477 154.509619 
L 722.674414 154.509619 
L 722.674414 50.138419 
L 717.211477 50.138419 
z
" style="fill:#ffe4c4;"/>
   </g>
   <g id="patch_132">
    <path clip-path="url(#pe3bb90cc1e)" d="M 739.063226 193.648819 
L 744.526163 193.648819 
L 744.526163 50.138419 
L 739.063226 50.138419 
z
" style="fill:#ffe4c4;"/>
   </g>
   <g id="patch_133">
    <path clip-path="url(#pe3bb90cc1e)" d="M 760.914974 219.741619 
L 766.377911 219.741619 
L 766.377911 50.138419 
L 760.914974 50.138419 
z
" style="fill:#ffe4c4;"/>
   </g>
   <g id="patch_134">
    <path clip-path="url(#pe3bb90cc1e)" d="M 782.766722 167.556019 
L 788.229659 167.556019 
L 788.229659 50.138419 
L 782.766722 50.138419 
z
" style="fill:#ffe4c4;"/>
   </g>
   <g id="matplotlib.axis_1">
    <g id="xtick_1">
     <g id="line2d_1">
      <defs>
       <path d="M 0 0 
L 0 3.5 
" id="m830a0f70ca" style="stroke:#000000;stroke-width:0.8;"/>
      </defs>
      <g>
       <use style="stroke:#000000;stroke-width:0.8;" x="83.510778" xlink:href="#m830a0f70ca" y="337.159219"/>
      </g>
     </g>
     <g id="text_1">
      <!-- 1 -->
      <g transform="translate(80.329528 351.757656)scale(0.1 -0.1)">
       <defs>
        <path d="M 12.40625 8.296875 
L 28.515625 8.296875 
L 28.515625 63.921875 
L 10.984375 60.40625 
L 10.984375 69.390625 
L 28.421875 72.90625 
L 38.28125 72.90625 
L 38.28125 8.296875 
L 54.390625 8.296875 
L 54.390625 0 
L 12.40625 0 
z
" id="DejaVuSans-49"/>
       </defs>
       <use xlink:href="#DejaVuSans-49"/>
      </g>
     </g>
    </g>
    <g id="xtick_2">
     <g id="line2d_2">
      <g>
       <use style="stroke:#000000;stroke-width:0.8;" x="105.362526" xlink:href="#m830a0f70ca" y="337.159219"/>
      </g>
     </g>
     <g id="text_2">
      <!-- 2 -->
      <g transform="translate(102.181276 351.757656)scale(0.1 -0.1)">
       <defs>
        <path d="M 19.1875 8.296875 
L 53.609375 8.296875 
L 53.609375 0 
L 7.328125 0 
L 7.328125 8.296875 
Q 12.9375 14.109375 22.625 23.890625 
Q 32.328125 33.6875 34.8125 36.53125 
Q 39.546875 41.84375 41.421875 45.53125 
Q 43.3125 49.21875 43.3125 52.78125 
Q 43.3125 58.59375 39.234375 62.25 
Q 35.15625 65.921875 28.609375 65.921875 
Q 23.96875 65.921875 18.8125 64.3125 
Q 13.671875 62.703125 7.8125 59.421875 
L 7.8125 69.390625 
Q 13.765625 71.78125 18.9375 73 
Q 24.125 74.21875 28.421875 74.21875 
Q 39.75 74.21875 46.484375 68.546875 
Q 53.21875 62.890625 53.21875 53.421875 
Q 53.21875 48.921875 51.53125 44.890625 
Q 49.859375 40.875 45.40625 35.40625 
Q 44.1875 33.984375 37.640625 27.21875 
Q 31.109375 20.453125 19.1875 8.296875 
z
" id="DejaVuSans-50"/>
       </defs>
       <use xlink:href="#DejaVuSans-50"/>
      </g>
     </g>
    </g>
    <g id="xtick_3">
     <g id="line2d_3">
      <g>
       <use style="stroke:#000000;stroke-width:0.8;" x="127.214274" xlink:href="#m830a0f70ca" y="337.159219"/>
      </g>
     </g>
     <g id="text_3">
      <!-- 3 -->
      <g transform="translate(124.033024 351.757656)scale(0.1 -0.1)">
       <defs>
        <path d="M 40.578125 39.3125 
Q 47.65625 37.796875 51.625 33 
Q 55.609375 28.21875 55.609375 21.1875 
Q 55.609375 10.40625 48.1875 4.484375 
Q 40.765625 -1.421875 27.09375 -1.421875 
Q 22.515625 -1.421875 17.65625 -0.515625 
Q 12.796875 0.390625 7.625 2.203125 
L 7.625 11.71875 
Q 11.71875 9.328125 16.59375 8.109375 
Q 21.484375 6.890625 26.8125 6.890625 
Q 36.078125 6.890625 40.9375 10.546875 
Q 45.796875 14.203125 45.796875 21.1875 
Q 45.796875 27.640625 41.28125 31.265625 
Q 36.765625 34.90625 28.71875 34.90625 
L 20.21875 34.90625 
L 20.21875 43.015625 
L 29.109375 43.015625 
Q 36.375 43.015625 40.234375 45.921875 
Q 44.09375 48.828125 44.09375 54.296875 
Q 44.09375 59.90625 40.109375 62.90625 
Q 36.140625 65.921875 28.71875 65.921875 
Q 24.65625 65.921875 20.015625 65.03125 
Q 15.375 64.15625 9.8125 62.3125 
L 9.8125 71.09375 
Q 15.4375 72.65625 20.34375 73.4375 
Q 25.25 74.21875 29.59375 74.21875 
Q 40.828125 74.21875 47.359375 69.109375 
Q 53.90625 64.015625 53.90625 55.328125 
Q 53.90625 49.265625 50.4375 45.09375 
Q 46.96875 40.921875 40.578125 39.3125 
z
" id="DejaVuSans-51"/>
       </defs>
       <use xlink:href="#DejaVuSans-51"/>
      </g>
     </g>
    </g>
    <g id="xtick_4">
     <g id="line2d_4">
      <g>
       <use style="stroke:#000000;stroke-width:0.8;" x="149.066023" xlink:href="#m830a0f70ca" y="337.159219"/>
      </g>
     </g>
     <g id="text_4">
      <!-- 4 -->
      <g transform="translate(145.884773 351.757656)scale(0.1 -0.1)">
       <defs>
        <path d="M 37.796875 64.3125 
L 12.890625 25.390625 
L 37.796875 25.390625 
z
M 35.203125 72.90625 
L 47.609375 72.90625 
L 47.609375 25.390625 
L 58.015625 25.390625 
L 58.015625 17.1875 
L 47.609375 17.1875 
L 47.609375 0 
L 37.796875 0 
L 37.796875 17.1875 
L 4.890625 17.1875 
L 4.890625 26.703125 
z
" id="DejaVuSans-52"/>
       </defs>
       <use xlink:href="#DejaVuSans-52"/>
      </g>
     </g>
    </g>
    <g id="xtick_5">
     <g id="line2d_5">
      <g>
       <use style="stroke:#000000;stroke-width:0.8;" x="170.917771" xlink:href="#m830a0f70ca" y="337.159219"/>
      </g>
     </g>
     <g id="text_5">
      <!-- 5 -->
      <g transform="translate(167.736521 351.757656)scale(0.1 -0.1)">
       <defs>
        <path d="M 10.796875 72.90625 
L 49.515625 72.90625 
L 49.515625 64.59375 
L 19.828125 64.59375 
L 19.828125 46.734375 
Q 21.96875 47.46875 24.109375 47.828125 
Q 26.265625 48.1875 28.421875 48.1875 
Q 40.625 48.1875 47.75 41.5 
Q 54.890625 34.8125 54.890625 23.390625 
Q 54.890625 11.625 47.5625 5.09375 
Q 40.234375 -1.421875 26.90625 -1.421875 
Q 22.3125 -1.421875 17.546875 -0.640625 
Q 12.796875 0.140625 7.71875 1.703125 
L 7.71875 11.625 
Q 12.109375 9.234375 16.796875 8.0625 
Q 21.484375 6.890625 26.703125 6.890625 
Q 35.15625 6.890625 40.078125 11.328125 
Q 45.015625 15.765625 45.015625 23.390625 
Q 45.015625 31 40.078125 35.4375 
Q 35.15625 39.890625 26.703125 39.890625 
Q 22.75 39.890625 18.8125 39.015625 
Q 14.890625 38.140625 10.796875 36.28125 
z
" id="DejaVuSans-53"/>
       </defs>
       <use xlink:href="#DejaVuSans-53"/>
      </g>
     </g>
    </g>
    <g id="xtick_6">
     <g id="line2d_6">
      <g>
       <use style="stroke:#000000;stroke-width:0.8;" x="192.769519" xlink:href="#m830a0f70ca" y="337.159219"/>
      </g>
     </g>
     <g id="text_6">
      <!-- 6 -->
      <g transform="translate(189.588269 351.757656)scale(0.1 -0.1)">
       <defs>
        <path d="M 33.015625 40.375 
Q 26.375 40.375 22.484375 35.828125 
Q 18.609375 31.296875 18.609375 23.390625 
Q 18.609375 15.53125 22.484375 10.953125 
Q 26.375 6.390625 33.015625 6.390625 
Q 39.65625 6.390625 43.53125 10.953125 
Q 47.40625 15.53125 47.40625 23.390625 
Q 47.40625 31.296875 43.53125 35.828125 
Q 39.65625 40.375 33.015625 40.375 
z
M 52.59375 71.296875 
L 52.59375 62.3125 
Q 48.875 64.0625 45.09375 64.984375 
Q 41.3125 65.921875 37.59375 65.921875 
Q 27.828125 65.921875 22.671875 59.328125 
Q 17.53125 52.734375 16.796875 39.40625 
Q 19.671875 43.65625 24.015625 45.921875 
Q 28.375 48.1875 33.59375 48.1875 
Q 44.578125 48.1875 50.953125 41.515625 
Q 57.328125 34.859375 57.328125 23.390625 
Q 57.328125 12.15625 50.6875 5.359375 
Q 44.046875 -1.421875 33.015625 -1.421875 
Q 20.359375 -1.421875 13.671875 8.265625 
Q 6.984375 17.96875 6.984375 36.375 
Q 6.984375 53.65625 15.1875 63.9375 
Q 23.390625 74.21875 37.203125 74.21875 
Q 40.921875 74.21875 44.703125 73.484375 
Q 48.484375 72.75 52.59375 71.296875 
z
" id="DejaVuSans-54"/>
       </defs>
       <use xlink:href="#DejaVuSans-54"/>
      </g>
     </g>
    </g>
    <g id="xtick_7">
     <g id="line2d_7">
      <g>
       <use style="stroke:#000000;stroke-width:0.8;" x="214.621267" xlink:href="#m830a0f70ca" y="337.159219"/>
      </g>
     </g>
     <g id="text_7">
      <!-- 7 -->
      <g transform="translate(211.440017 351.757656)scale(0.1 -0.1)">
       <defs>
        <path d="M 8.203125 72.90625 
L 55.078125 72.90625 
L 55.078125 68.703125 
L 28.609375 0 
L 18.3125 0 
L 43.21875 64.59375 
L 8.203125 64.59375 
z
" id="DejaVuSans-55"/>
       </defs>
       <use xlink:href="#DejaVuSans-55"/>
      </g>
     </g>
    </g>
    <g id="xtick_8">
     <g id="line2d_8">
      <g>
       <use style="stroke:#000000;stroke-width:0.8;" x="236.473016" xlink:href="#m830a0f70ca" y="337.159219"/>
      </g>
     </g>
     <g id="text_8">
      <!-- 8 -->
      <g transform="translate(233.291766 351.757656)scale(0.1 -0.1)">
       <defs>
        <path d="M 31.78125 34.625 
Q 24.75 34.625 20.71875 30.859375 
Q 16.703125 27.09375 16.703125 20.515625 
Q 16.703125 13.921875 20.71875 10.15625 
Q 24.75 6.390625 31.78125 6.390625 
Q 38.8125 6.390625 42.859375 10.171875 
Q 46.921875 13.96875 46.921875 20.515625 
Q 46.921875 27.09375 42.890625 30.859375 
Q 38.875 34.625 31.78125 34.625 
z
M 21.921875 38.8125 
Q 15.578125 40.375 12.03125 44.71875 
Q 8.5 49.078125 8.5 55.328125 
Q 8.5 64.0625 14.71875 69.140625 
Q 20.953125 74.21875 31.78125 74.21875 
Q 42.671875 74.21875 48.875 69.140625 
Q 55.078125 64.0625 55.078125 55.328125 
Q 55.078125 49.078125 51.53125 44.71875 
Q 48 40.375 41.703125 38.8125 
Q 48.828125 37.15625 52.796875 32.3125 
Q 56.78125 27.484375 56.78125 20.515625 
Q 56.78125 9.90625 50.3125 4.234375 
Q 43.84375 -1.421875 31.78125 -1.421875 
Q 19.734375 -1.421875 13.25 4.234375 
Q 6.78125 9.90625 6.78125 20.515625 
Q 6.78125 27.484375 10.78125 32.3125 
Q 14.796875 37.15625 21.921875 38.8125 
z
M 18.3125 54.390625 
Q 18.3125 48.734375 21.84375 45.5625 
Q 25.390625 42.390625 31.78125 42.390625 
Q 38.140625 42.390625 41.71875 45.5625 
Q 45.3125 48.734375 45.3125 54.390625 
Q 45.3125 60.0625 41.71875 63.234375 
Q 38.140625 66.40625 31.78125 66.40625 
Q 25.390625 66.40625 21.84375 63.234375 
Q 18.3125 60.0625 18.3125 54.390625 
z
" id="DejaVuSans-56"/>
       </defs>
       <use xlink:href="#DejaVuSans-56"/>
      </g>
     </g>
    </g>
    <g id="xtick_9">
     <g id="line2d_9">
      <g>
       <use style="stroke:#000000;stroke-width:0.8;" x="258.324764" xlink:href="#m830a0f70ca" y="337.159219"/>
      </g>
     </g>
     <g id="text_9">
      <!-- 9 -->
      <g transform="translate(255.143514 351.757656)scale(0.1 -0.1)">
       <defs>
        <path d="M 10.984375 1.515625 
L 10.984375 10.5 
Q 14.703125 8.734375 18.5 7.8125 
Q 22.3125 6.890625 25.984375 6.890625 
Q 35.75 6.890625 40.890625 13.453125 
Q 46.046875 20.015625 46.78125 33.40625 
Q 43.953125 29.203125 39.59375 26.953125 
Q 35.25 24.703125 29.984375 24.703125 
Q 19.046875 24.703125 12.671875 31.3125 
Q 6.296875 37.9375 6.296875 49.421875 
Q 6.296875 60.640625 12.9375 67.421875 
Q 19.578125 74.21875 30.609375 74.21875 
Q 43.265625 74.21875 49.921875 64.515625 
Q 56.59375 54.828125 56.59375 36.375 
Q 56.59375 19.140625 48.40625 8.859375 
Q 40.234375 -1.421875 26.421875 -1.421875 
Q 22.703125 -1.421875 18.890625 -0.6875 
Q 15.09375 0.046875 10.984375 1.515625 
z
M 30.609375 32.421875 
Q 37.25 32.421875 41.125 36.953125 
Q 45.015625 41.5 45.015625 49.421875 
Q 45.015625 57.28125 41.125 61.84375 
Q 37.25 66.40625 30.609375 66.40625 
Q 23.96875 66.40625 20.09375 61.84375 
Q 16.21875 57.28125 16.21875 49.421875 
Q 16.21875 41.5 20.09375 36.953125 
Q 23.96875 32.421875 30.609375 32.421875 
z
" id="DejaVuSans-57"/>
       </defs>
       <use xlink:href="#DejaVuSans-57"/>
      </g>
     </g>
    </g>
    <g id="xtick_10">
     <g id="line2d_10">
      <g>
       <use style="stroke:#000000;stroke-width:0.8;" x="280.176512" xlink:href="#m830a0f70ca" y="337.159219"/>
      </g>
     </g>
     <g id="text_10">
      <!-- 10 -->
      <g transform="translate(273.814012 351.757656)scale(0.1 -0.1)">
       <defs>
        <path d="M 31.78125 66.40625 
Q 24.171875 66.40625 20.328125 58.90625 
Q 16.5 51.421875 16.5 36.375 
Q 16.5 21.390625 20.328125 13.890625 
Q 24.171875 6.390625 31.78125 6.390625 
Q 39.453125 6.390625 43.28125 13.890625 
Q 47.125 21.390625 47.125 36.375 
Q 47.125 51.421875 43.28125 58.90625 
Q 39.453125 66.40625 31.78125 66.40625 
z
M 31.78125 74.21875 
Q 44.046875 74.21875 50.515625 64.515625 
Q 56.984375 54.828125 56.984375 36.375 
Q 56.984375 17.96875 50.515625 8.265625 
Q 44.046875 -1.421875 31.78125 -1.421875 
Q 19.53125 -1.421875 13.0625 8.265625 
Q 6.59375 17.96875 6.59375 36.375 
Q 6.59375 54.828125 13.0625 64.515625 
Q 19.53125 74.21875 31.78125 74.21875 
z
" id="DejaVuSans-48"/>
       </defs>
       <use xlink:href="#DejaVuSans-49"/>
       <use x="63.623047" xlink:href="#DejaVuSans-48"/>
      </g>
     </g>
    </g>
    <g id="xtick_11">
     <g id="line2d_11">
      <g>
       <use style="stroke:#000000;stroke-width:0.8;" x="302.02826" xlink:href="#m830a0f70ca" y="337.159219"/>
      </g>
     </g>
     <g id="text_11">
      <!-- 11 -->
      <g transform="translate(295.66576 351.757656)scale(0.1 -0.1)">
       <use xlink:href="#DejaVuSans-49"/>
       <use x="63.623047" xlink:href="#DejaVuSans-49"/>
      </g>
     </g>
    </g>
    <g id="xtick_12">
     <g id="line2d_12">
      <g>
       <use style="stroke:#000000;stroke-width:0.8;" x="323.880009" xlink:href="#m830a0f70ca" y="337.159219"/>
      </g>
     </g>
     <g id="text_12">
      <!-- 12 -->
      <g transform="translate(317.517509 351.757656)scale(0.1 -0.1)">
       <use xlink:href="#DejaVuSans-49"/>
       <use x="63.623047" xlink:href="#DejaVuSans-50"/>
      </g>
     </g>
    </g>
    <g id="xtick_13">
     <g id="line2d_13">
      <g>
       <use style="stroke:#000000;stroke-width:0.8;" x="345.731757" xlink:href="#m830a0f70ca" y="337.159219"/>
      </g>
     </g>
     <g id="text_13">
      <!-- 13 -->
      <g transform="translate(339.369257 351.757656)scale(0.1 -0.1)">
       <use xlink:href="#DejaVuSans-49"/>
       <use x="63.623047" xlink:href="#DejaVuSans-51"/>
      </g>
     </g>
    </g>
    <g id="xtick_14">
     <g id="line2d_14">
      <g>
       <use style="stroke:#000000;stroke-width:0.8;" x="367.583505" xlink:href="#m830a0f70ca" y="337.159219"/>
      </g>
     </g>
     <g id="text_14">
      <!-- 14 -->
      <g transform="translate(361.221005 351.757656)scale(0.1 -0.1)">
       <use xlink:href="#DejaVuSans-49"/>
       <use x="63.623047" xlink:href="#DejaVuSans-52"/>
      </g>
     </g>
    </g>
    <g id="xtick_15">
     <g id="line2d_15">
      <g>
       <use style="stroke:#000000;stroke-width:0.8;" x="389.435253" xlink:href="#m830a0f70ca" y="337.159219"/>
      </g>
     </g>
     <g id="text_15">
      <!-- 15 -->
      <g transform="translate(383.072753 351.757656)scale(0.1 -0.1)">
       <use xlink:href="#DejaVuSans-49"/>
       <use x="63.623047" xlink:href="#DejaVuSans-53"/>
      </g>
     </g>
    </g>
    <g id="xtick_16">
     <g id="line2d_16">
      <g>
       <use style="stroke:#000000;stroke-width:0.8;" x="411.287002" xlink:href="#m830a0f70ca" y="337.159219"/>
      </g>
     </g>
     <g id="text_16">
      <!-- 16 -->
      <g transform="translate(404.924502 351.757656)scale(0.1 -0.1)">
       <use xlink:href="#DejaVuSans-49"/>
       <use x="63.623047" xlink:href="#DejaVuSans-54"/>
      </g>
     </g>
    </g>
    <g id="xtick_17">
     <g id="line2d_17">
      <g>
       <use style="stroke:#000000;stroke-width:0.8;" x="433.13875" xlink:href="#m830a0f70ca" y="337.159219"/>
      </g>
     </g>
     <g id="text_17">
      <!-- 17 -->
      <g transform="translate(426.77625 351.757656)scale(0.1 -0.1)">
       <use xlink:href="#DejaVuSans-49"/>
       <use x="63.623047" xlink:href="#DejaVuSans-55"/>
      </g>
     </g>
    </g>
    <g id="xtick_18">
     <g id="line2d_18">
      <g>
       <use style="stroke:#000000;stroke-width:0.8;" x="454.990498" xlink:href="#m830a0f70ca" y="337.159219"/>
      </g>
     </g>
     <g id="text_18">
      <!-- 18 -->
      <g transform="translate(448.627998 351.757656)scale(0.1 -0.1)">
       <use xlink:href="#DejaVuSans-49"/>
       <use x="63.623047" xlink:href="#DejaVuSans-56"/>
      </g>
     </g>
    </g>
    <g id="xtick_19">
     <g id="line2d_19">
      <g>
       <use style="stroke:#000000;stroke-width:0.8;" x="476.842247" xlink:href="#m830a0f70ca" y="337.159219"/>
      </g>
     </g>
     <g id="text_19">
      <!-- 19 -->
      <g transform="translate(470.479747 351.757656)scale(0.1 -0.1)">
       <use xlink:href="#DejaVuSans-49"/>
       <use x="63.623047" xlink:href="#DejaVuSans-57"/>
      </g>
     </g>
    </g>
    <g id="xtick_20">
     <g id="line2d_20">
      <g>
       <use style="stroke:#000000;stroke-width:0.8;" x="498.693995" xlink:href="#m830a0f70ca" y="337.159219"/>
      </g>
     </g>
     <g id="text_20">
      <!-- 20 -->
      <g transform="translate(492.331495 351.757656)scale(0.1 -0.1)">
       <use xlink:href="#DejaVuSans-50"/>
       <use x="63.623047" xlink:href="#DejaVuSans-48"/>
      </g>
     </g>
    </g>
    <g id="xtick_21">
     <g id="line2d_21">
      <g>
       <use style="stroke:#000000;stroke-width:0.8;" x="520.545743" xlink:href="#m830a0f70ca" y="337.159219"/>
      </g>
     </g>
     <g id="text_21">
      <!-- 21 -->
      <g transform="translate(514.183243 351.757656)scale(0.1 -0.1)">
       <use xlink:href="#DejaVuSans-50"/>
       <use x="63.623047" xlink:href="#DejaVuSans-49"/>
      </g>
     </g>
    </g>
    <g id="xtick_22">
     <g id="line2d_22">
      <g>
       <use style="stroke:#000000;stroke-width:0.8;" x="542.397491" xlink:href="#m830a0f70ca" y="337.159219"/>
      </g>
     </g>
     <g id="text_22">
      <!-- 22 -->
      <g transform="translate(536.034991 351.757656)scale(0.1 -0.1)">
       <use xlink:href="#DejaVuSans-50"/>
       <use x="63.623047" xlink:href="#DejaVuSans-50"/>
      </g>
     </g>
    </g>
    <g id="xtick_23">
     <g id="line2d_23">
      <g>
       <use style="stroke:#000000;stroke-width:0.8;" x="564.24924" xlink:href="#m830a0f70ca" y="337.159219"/>
      </g>
     </g>
     <g id="text_23">
      <!-- 23 -->
      <g transform="translate(557.88674 351.757656)scale(0.1 -0.1)">
       <use xlink:href="#DejaVuSans-50"/>
       <use x="63.623047" xlink:href="#DejaVuSans-51"/>
      </g>
     </g>
    </g>
    <g id="xtick_24">
     <g id="line2d_24">
      <g>
       <use style="stroke:#000000;stroke-width:0.8;" x="586.100988" xlink:href="#m830a0f70ca" y="337.159219"/>
      </g>
     </g>
     <g id="text_24">
      <!-- 24 -->
      <g transform="translate(579.738488 351.757656)scale(0.1 -0.1)">
       <use xlink:href="#DejaVuSans-50"/>
       <use x="63.623047" xlink:href="#DejaVuSans-52"/>
      </g>
     </g>
    </g>
    <g id="xtick_25">
     <g id="line2d_25">
      <g>
       <use style="stroke:#000000;stroke-width:0.8;" x="607.952736" xlink:href="#m830a0f70ca" y="337.159219"/>
      </g>
     </g>
     <g id="text_25">
      <!-- 25 -->
      <g transform="translate(601.590236 351.757656)scale(0.1 -0.1)">
       <use xlink:href="#DejaVuSans-50"/>
       <use x="63.623047" xlink:href="#DejaVuSans-53"/>
      </g>
     </g>
    </g>
    <g id="xtick_26">
     <g id="line2d_26">
      <g>
       <use style="stroke:#000000;stroke-width:0.8;" x="629.804484" xlink:href="#m830a0f70ca" y="337.159219"/>
      </g>
     </g>
     <g id="text_26">
      <!-- 26 -->
      <g transform="translate(623.441984 351.757656)scale(0.1 -0.1)">
       <use xlink:href="#DejaVuSans-50"/>
       <use x="63.623047" xlink:href="#DejaVuSans-54"/>
      </g>
     </g>
    </g>
    <g id="xtick_27">
     <g id="line2d_27">
      <g>
       <use style="stroke:#000000;stroke-width:0.8;" x="651.656233" xlink:href="#m830a0f70ca" y="337.159219"/>
      </g>
     </g>
     <g id="text_27">
      <!-- 27 -->
      <g transform="translate(645.293733 351.757656)scale(0.1 -0.1)">
       <use xlink:href="#DejaVuSans-50"/>
       <use x="63.623047" xlink:href="#DejaVuSans-55"/>
      </g>
     </g>
    </g>
    <g id="xtick_28">
     <g id="line2d_28">
      <g>
       <use style="stroke:#000000;stroke-width:0.8;" x="673.507981" xlink:href="#m830a0f70ca" y="337.159219"/>
      </g>
     </g>
     <g id="text_28">
      <!-- 28 -->
      <g transform="translate(667.145481 351.757656)scale(0.1 -0.1)">
       <use xlink:href="#DejaVuSans-50"/>
       <use x="63.623047" xlink:href="#DejaVuSans-56"/>
      </g>
     </g>
    </g>
    <g id="xtick_29">
     <g id="line2d_29">
      <g>
       <use style="stroke:#000000;stroke-width:0.8;" x="695.359729" xlink:href="#m830a0f70ca" y="337.159219"/>
      </g>
     </g>
     <g id="text_29">
      <!-- 29 -->
      <g transform="translate(688.997229 351.757656)scale(0.1 -0.1)">
       <use xlink:href="#DejaVuSans-50"/>
       <use x="63.623047" xlink:href="#DejaVuSans-57"/>
      </g>
     </g>
    </g>
    <g id="xtick_30">
     <g id="line2d_30">
      <g>
       <use style="stroke:#000000;stroke-width:0.8;" x="717.211477" xlink:href="#m830a0f70ca" y="337.159219"/>
      </g>
     </g>
     <g id="text_30">
      <!-- 30 -->
      <g transform="translate(710.848977 351.757656)scale(0.1 -0.1)">
       <use xlink:href="#DejaVuSans-51"/>
       <use x="63.623047" xlink:href="#DejaVuSans-48"/>
      </g>
     </g>
    </g>
    <g id="xtick_31">
     <g id="line2d_31">
      <g>
       <use style="stroke:#000000;stroke-width:0.8;" x="739.063226" xlink:href="#m830a0f70ca" y="337.159219"/>
      </g>
     </g>
     <g id="text_31">
      <!-- 31 -->
      <g transform="translate(732.700726 351.757656)scale(0.1 -0.1)">
       <use xlink:href="#DejaVuSans-51"/>
       <use x="63.623047" xlink:href="#DejaVuSans-49"/>
      </g>
     </g>
    </g>
    <g id="xtick_32">
     <g id="line2d_32">
      <g>
       <use style="stroke:#000000;stroke-width:0.8;" x="760.914974" xlink:href="#m830a0f70ca" y="337.159219"/>
      </g>
     </g>
     <g id="text_32">
      <!-- 32 -->
      <g transform="translate(754.552474 351.757656)scale(0.1 -0.1)">
       <use xlink:href="#DejaVuSans-51"/>
       <use x="63.623047" xlink:href="#DejaVuSans-50"/>
      </g>
     </g>
    </g>
    <g id="xtick_33">
     <g id="line2d_33">
      <g>
       <use style="stroke:#000000;stroke-width:0.8;" x="782.766722" xlink:href="#m830a0f70ca" y="337.159219"/>
      </g>
     </g>
     <g id="text_33">
      <!-- 33 -->
      <g transform="translate(776.404222 351.757656)scale(0.1 -0.1)">
       <use xlink:href="#DejaVuSans-51"/>
       <use x="63.623047" xlink:href="#DejaVuSans-51"/>
      </g>
     </g>
    </g>
    <g id="text_34">
     <!-- Variables -->
     <g transform="translate(405.71875 366.955469)scale(0.12 -0.12)">
      <defs>
       <path d="M 28.609375 0 
L 0.78125 72.90625 
L 11.078125 72.90625 
L 34.1875 11.53125 
L 57.328125 72.90625 
L 67.578125 72.90625 
L 39.796875 0 
z
" id="DejaVuSans-86"/>
       <path d="M 34.28125 27.484375 
Q 23.390625 27.484375 19.1875 25 
Q 14.984375 22.515625 14.984375 16.5 
Q 14.984375 11.71875 18.140625 8.90625 
Q 21.296875 6.109375 26.703125 6.109375 
Q 34.1875 6.109375 38.703125 11.40625 
Q 43.21875 16.703125 43.21875 25.484375 
L 43.21875 27.484375 
z
M 52.203125 31.203125 
L 52.203125 0 
L 43.21875 0 
L 43.21875 8.296875 
Q 40.140625 3.328125 35.546875 0.953125 
Q 30.953125 -1.421875 24.3125 -1.421875 
Q 15.921875 -1.421875 10.953125 3.296875 
Q 6 8.015625 6 15.921875 
Q 6 25.140625 12.171875 29.828125 
Q 18.359375 34.515625 30.609375 34.515625 
L 43.21875 34.515625 
L 43.21875 35.40625 
Q 43.21875 41.609375 39.140625 45 
Q 35.0625 48.390625 27.6875 48.390625 
Q 23 48.390625 18.546875 47.265625 
Q 14.109375 46.140625 10.015625 43.890625 
L 10.015625 52.203125 
Q 14.9375 54.109375 19.578125 55.046875 
Q 24.21875 56 28.609375 56 
Q 40.484375 56 46.34375 49.84375 
Q 52.203125 43.703125 52.203125 31.203125 
z
" id="DejaVuSans-97"/>
       <path d="M 41.109375 46.296875 
Q 39.59375 47.171875 37.8125 47.578125 
Q 36.03125 48 33.890625 48 
Q 26.265625 48 22.1875 43.046875 
Q 18.109375 38.09375 18.109375 28.8125 
L 18.109375 0 
L 9.078125 0 
L 9.078125 54.6875 
L 18.109375 54.6875 
L 18.109375 46.1875 
Q 20.953125 51.171875 25.484375 53.578125 
Q 30.03125 56 36.53125 56 
Q 37.453125 56 38.578125 55.875 
Q 39.703125 55.765625 41.0625 55.515625 
z
" id="DejaVuSans-114"/>
       <path d="M 9.421875 54.6875 
L 18.40625 54.6875 
L 18.40625 0 
L 9.421875 0 
z
M 9.421875 75.984375 
L 18.40625 75.984375 
L 18.40625 64.59375 
L 9.421875 64.59375 
z
" id="DejaVuSans-105"/>
       <path d="M 48.6875 27.296875 
Q 48.6875 37.203125 44.609375 42.84375 
Q 40.53125 48.484375 33.40625 48.484375 
Q 26.265625 48.484375 22.1875 42.84375 
Q 18.109375 37.203125 18.109375 27.296875 
Q 18.109375 17.390625 22.1875 11.75 
Q 26.265625 6.109375 33.40625 6.109375 
Q 40.53125 6.109375 44.609375 11.75 
Q 48.6875 17.390625 48.6875 27.296875 
z
M 18.109375 46.390625 
Q 20.953125 51.265625 25.265625 53.625 
Q 29.59375 56 35.59375 56 
Q 45.5625 56 51.78125 48.09375 
Q 58.015625 40.1875 58.015625 27.296875 
Q 58.015625 14.40625 51.78125 6.484375 
Q 45.5625 -1.421875 35.59375 -1.421875 
Q 29.59375 -1.421875 25.265625 0.953125 
Q 20.953125 3.328125 18.109375 8.203125 
L 18.109375 0 
L 9.078125 0 
L 9.078125 75.984375 
L 18.109375 75.984375 
z
" id="DejaVuSans-98"/>
       <path d="M 9.421875 75.984375 
L 18.40625 75.984375 
L 18.40625 0 
L 9.421875 0 
z
" id="DejaVuSans-108"/>
       <path d="M 56.203125 29.59375 
L 56.203125 25.203125 
L 14.890625 25.203125 
Q 15.484375 15.921875 20.484375 11.0625 
Q 25.484375 6.203125 34.421875 6.203125 
Q 39.59375 6.203125 44.453125 7.46875 
Q 49.3125 8.734375 54.109375 11.28125 
L 54.109375 2.78125 
Q 49.265625 0.734375 44.1875 -0.34375 
Q 39.109375 -1.421875 33.890625 -1.421875 
Q 20.796875 -1.421875 13.15625 6.1875 
Q 5.515625 13.8125 5.515625 26.8125 
Q 5.515625 40.234375 12.765625 48.109375 
Q 20.015625 56 32.328125 56 
Q 43.359375 56 49.78125 48.890625 
Q 56.203125 41.796875 56.203125 29.59375 
z
M 47.21875 32.234375 
Q 47.125 39.59375 43.09375 43.984375 
Q 39.0625 48.390625 32.421875 48.390625 
Q 24.90625 48.390625 20.390625 44.140625 
Q 15.875 39.890625 15.1875 32.171875 
z
" id="DejaVuSans-101"/>
       <path d="M 44.28125 53.078125 
L 44.28125 44.578125 
Q 40.484375 46.53125 36.375 47.5 
Q 32.28125 48.484375 27.875 48.484375 
Q 21.1875 48.484375 17.84375 46.4375 
Q 14.5 44.390625 14.5 40.28125 
Q 14.5 37.15625 16.890625 35.375 
Q 19.28125 33.59375 26.515625 31.984375 
L 29.59375 31.296875 
Q 39.15625 29.25 43.1875 25.515625 
Q 47.21875 21.78125 47.21875 15.09375 
Q 47.21875 7.46875 41.1875 3.015625 
Q 35.15625 -1.421875 24.609375 -1.421875 
Q 20.21875 -1.421875 15.453125 -0.5625 
Q 10.6875 0.296875 5.421875 2 
L 5.421875 11.28125 
Q 10.40625 8.6875 15.234375 7.390625 
Q 20.0625 6.109375 24.8125 6.109375 
Q 31.15625 6.109375 34.5625 8.28125 
Q 37.984375 10.453125 37.984375 14.40625 
Q 37.984375 18.0625 35.515625 20.015625 
Q 33.0625 21.96875 24.703125 23.78125 
L 21.578125 24.515625 
Q 13.234375 26.265625 9.515625 29.90625 
Q 5.8125 33.546875 5.8125 39.890625 
Q 5.8125 47.609375 11.28125 51.796875 
Q 16.75 56 26.8125 56 
Q 31.78125 56 36.171875 55.265625 
Q 40.578125 54.546875 44.28125 53.078125 
z
" id="DejaVuSans-115"/>
      </defs>
      <use xlink:href="#DejaVuSans-86"/>
      <use x="60.658203" xlink:href="#DejaVuSans-97"/>
      <use x="121.9375" xlink:href="#DejaVuSans-114"/>
      <use x="163.050781" xlink:href="#DejaVuSans-105"/>
      <use x="190.833984" xlink:href="#DejaVuSans-97"/>
      <use x="252.113281" xlink:href="#DejaVuSans-98"/>
      <use x="315.589844" xlink:href="#DejaVuSans-108"/>
      <use x="343.373047" xlink:href="#DejaVuSans-101"/>
      <use x="404.896484" xlink:href="#DejaVuSans-115"/>
     </g>
    </g>
   </g>
   <g id="matplotlib.axis_2">
    <g id="ytick_1">
     <g id="line2d_34">
      <defs>
       <path d="M 0 0 
L -3.5 0 
" id="m87b592eed5" style="stroke:#000000;stroke-width:0.8;"/>
      </defs>
      <g>
       <use style="stroke:#000000;stroke-width:0.8;" x="42.53875" xlink:href="#m87b592eed5" y="271.927219"/>
      </g>
     </g>
     <g id="text_35">
      <!-- 5 -->
      <g transform="translate(29.17625 275.726437)scale(0.1 -0.1)">
       <use xlink:href="#DejaVuSans-53"/>
      </g>
     </g>
    </g>
    <g id="ytick_2">
     <g id="line2d_35">
      <g>
       <use style="stroke:#000000;stroke-width:0.8;" x="42.53875" xlink:href="#m87b592eed5" y="206.695219"/>
      </g>
     </g>
     <g id="text_36">
      <!-- 10 -->
      <g transform="translate(22.81375 210.494438)scale(0.1 -0.1)">
       <use xlink:href="#DejaVuSans-49"/>
       <use x="63.623047" xlink:href="#DejaVuSans-48"/>
      </g>
     </g>
    </g>
    <g id="ytick_3">
     <g id="line2d_36">
      <g>
       <use style="stroke:#000000;stroke-width:0.8;" x="42.53875" xlink:href="#m87b592eed5" y="141.463219"/>
      </g>
     </g>
     <g id="text_37">
      <!-- 15 -->
      <g transform="translate(22.81375 145.262438)scale(0.1 -0.1)">
       <use xlink:href="#DejaVuSans-49"/>
       <use x="63.623047" xlink:href="#DejaVuSans-53"/>
      </g>
     </g>
    </g>
    <g id="ytick_4">
     <g id="line2d_37">
      <g>
       <use style="stroke:#000000;stroke-width:0.8;" x="42.53875" xlink:href="#m87b592eed5" y="76.231219"/>
      </g>
     </g>
     <g id="text_38">
      <!-- 20 -->
      <g transform="translate(22.81375 80.030438)scale(0.1 -0.1)">
       <use xlink:href="#DejaVuSans-50"/>
       <use x="63.623047" xlink:href="#DejaVuSans-48"/>
      </g>
     </g>
    </g>
    <g id="ytick_5">
     <g id="line2d_38">
      <g>
       <use style="stroke:#000000;stroke-width:0.8;" x="42.53875" xlink:href="#m87b592eed5" y="10.999219"/>
      </g>
     </g>
     <g id="text_39">
      <!-- 25 -->
      <g transform="translate(22.81375 14.798438)scale(0.1 -0.1)">
       <use xlink:href="#DejaVuSans-50"/>
       <use x="63.623047" xlink:href="#DejaVuSans-53"/>
      </g>
     </g>
    </g>
    <g id="text_40">
     <!-- Values -->
     <g transform="translate(16.318125 193.682344)rotate(-90)scale(0.12 -0.12)">
      <defs>
       <path d="M 8.5 21.578125 
L 8.5 54.6875 
L 17.484375 54.6875 
L 17.484375 21.921875 
Q 17.484375 14.15625 20.5 10.265625 
Q 23.53125 6.390625 29.59375 6.390625 
Q 36.859375 6.390625 41.078125 11.03125 
Q 45.3125 15.671875 45.3125 23.6875 
L 45.3125 54.6875 
L 54.296875 54.6875 
L 54.296875 0 
L 45.3125 0 
L 45.3125 8.40625 
Q 42.046875 3.421875 37.71875 1 
Q 33.40625 -1.421875 27.6875 -1.421875 
Q 18.265625 -1.421875 13.375 4.4375 
Q 8.5 10.296875 8.5 21.578125 
z
M 31.109375 56 
z
" id="DejaVuSans-117"/>
      </defs>
      <use xlink:href="#DejaVuSans-86"/>
      <use x="60.658203" xlink:href="#DejaVuSans-97"/>
      <use x="121.9375" xlink:href="#DejaVuSans-108"/>
      <use x="149.720703" xlink:href="#DejaVuSans-117"/>
      <use x="213.099609" xlink:href="#DejaVuSans-101"/>
      <use x="274.623047" xlink:href="#DejaVuSans-115"/>
     </g>
    </g>
   </g>
   <g id="patch_135">
    <path d="M 42.53875 337.159219 
L 42.53875 10.999219 
" style="fill:none;stroke:#000000;stroke-linecap:square;stroke-linejoin:miter;stroke-width:0.8;"/>
   </g>
   <g id="patch_136">
    <path d="M 823.73875 337.159219 
L 823.73875 10.999219 
" style="fill:none;stroke:#000000;stroke-linecap:square;stroke-linejoin:miter;stroke-width:0.8;"/>
   </g>
   <g id="patch_137">
    <path d="M 42.53875 337.159219 
L 823.73875 337.159219 
" style="fill:none;stroke:#000000;stroke-linecap:square;stroke-linejoin:miter;stroke-width:0.8;"/>
   </g>
   <g id="patch_138">
    <path d="M 42.53875 10.999219 
L 823.73875 10.999219 
" style="fill:none;stroke:#000000;stroke-linecap:square;stroke-linejoin:miter;stroke-width:0.8;"/>
   </g>
   <g id="legend_1">
    <g id="patch_139">
     <path d="M 608.949687 77.711719 
L 816.73875 77.711719 
Q 818.73875 77.711719 818.73875 75.711719 
L 818.73875 17.999219 
Q 818.73875 15.999219 816.73875 15.999219 
L 608.949687 15.999219 
Q 606.949687 15.999219 606.949687 17.999219 
L 606.949687 75.711719 
Q 606.949687 77.711719 608.949687 77.711719 
z
" style="fill:#ffffff;opacity:0.8;stroke:#cccccc;stroke-linejoin:miter;"/>
    </g>
    <g id="patch_140">
     <path d="M 610.949687 27.597656 
L 630.949687 27.597656 
L 630.949687 20.597656 
L 610.949687 20.597656 
z
" style="fill:#4169e1;"/>
    </g>
    <g id="text_41">
     <!-- successful reverse(no protection) -->
     <g transform="translate(638.949687 27.597656)scale(0.1 -0.1)">
      <defs>
       <path d="M 48.78125 52.59375 
L 48.78125 44.1875 
Q 44.96875 46.296875 41.140625 47.34375 
Q 37.3125 48.390625 33.40625 48.390625 
Q 24.65625 48.390625 19.8125 42.84375 
Q 14.984375 37.3125 14.984375 27.296875 
Q 14.984375 17.28125 19.8125 11.734375 
Q 24.65625 6.203125 33.40625 6.203125 
Q 37.3125 6.203125 41.140625 7.25 
Q 44.96875 8.296875 48.78125 10.40625 
L 48.78125 2.09375 
Q 45.015625 0.34375 40.984375 -0.53125 
Q 36.96875 -1.421875 32.421875 -1.421875 
Q 20.0625 -1.421875 12.78125 6.34375 
Q 5.515625 14.109375 5.515625 27.296875 
Q 5.515625 40.671875 12.859375 48.328125 
Q 20.21875 56 33.015625 56 
Q 37.15625 56 41.109375 55.140625 
Q 45.0625 54.296875 48.78125 52.59375 
z
" id="DejaVuSans-99"/>
       <path d="M 37.109375 75.984375 
L 37.109375 68.5 
L 28.515625 68.5 
Q 23.6875 68.5 21.796875 66.546875 
Q 19.921875 64.59375 19.921875 59.515625 
L 19.921875 54.6875 
L 34.71875 54.6875 
L 34.71875 47.703125 
L 19.921875 47.703125 
L 19.921875 0 
L 10.890625 0 
L 10.890625 47.703125 
L 2.296875 47.703125 
L 2.296875 54.6875 
L 10.890625 54.6875 
L 10.890625 58.5 
Q 10.890625 67.625 15.140625 71.796875 
Q 19.390625 75.984375 28.609375 75.984375 
z
" id="DejaVuSans-102"/>
       <path id="DejaVuSans-32"/>
       <path d="M 2.984375 54.6875 
L 12.5 54.6875 
L 29.59375 8.796875 
L 46.6875 54.6875 
L 56.203125 54.6875 
L 35.6875 0 
L 23.484375 0 
z
" id="DejaVuSans-118"/>
       <path d="M 31 75.875 
Q 24.46875 64.65625 21.28125 53.65625 
Q 18.109375 42.671875 18.109375 31.390625 
Q 18.109375 20.125 21.3125 9.0625 
Q 24.515625 -2 31 -13.1875 
L 23.1875 -13.1875 
Q 15.875 -1.703125 12.234375 9.375 
Q 8.59375 20.453125 8.59375 31.390625 
Q 8.59375 42.28125 12.203125 53.3125 
Q 15.828125 64.359375 23.1875 75.875 
z
" id="DejaVuSans-40"/>
       <path d="M 54.890625 33.015625 
L 54.890625 0 
L 45.90625 0 
L 45.90625 32.71875 
Q 45.90625 40.484375 42.875 44.328125 
Q 39.84375 48.1875 33.796875 48.1875 
Q 26.515625 48.1875 22.3125 43.546875 
Q 18.109375 38.921875 18.109375 30.90625 
L 18.109375 0 
L 9.078125 0 
L 9.078125 54.6875 
L 18.109375 54.6875 
L 18.109375 46.1875 
Q 21.34375 51.125 25.703125 53.5625 
Q 30.078125 56 35.796875 56 
Q 45.21875 56 50.046875 50.171875 
Q 54.890625 44.34375 54.890625 33.015625 
z
" id="DejaVuSans-110"/>
       <path d="M 30.609375 48.390625 
Q 23.390625 48.390625 19.1875 42.75 
Q 14.984375 37.109375 14.984375 27.296875 
Q 14.984375 17.484375 19.15625 11.84375 
Q 23.34375 6.203125 30.609375 6.203125 
Q 37.796875 6.203125 41.984375 11.859375 
Q 46.1875 17.53125 46.1875 27.296875 
Q 46.1875 37.015625 41.984375 42.703125 
Q 37.796875 48.390625 30.609375 48.390625 
z
M 30.609375 56 
Q 42.328125 56 49.015625 48.375 
Q 55.71875 40.765625 55.71875 27.296875 
Q 55.71875 13.875 49.015625 6.21875 
Q 42.328125 -1.421875 30.609375 -1.421875 
Q 18.84375 -1.421875 12.171875 6.21875 
Q 5.515625 13.875 5.515625 27.296875 
Q 5.515625 40.765625 12.171875 48.375 
Q 18.84375 56 30.609375 56 
z
" id="DejaVuSans-111"/>
       <path d="M 18.109375 8.203125 
L 18.109375 -20.796875 
L 9.078125 -20.796875 
L 9.078125 54.6875 
L 18.109375 54.6875 
L 18.109375 46.390625 
Q 20.953125 51.265625 25.265625 53.625 
Q 29.59375 56 35.59375 56 
Q 45.5625 56 51.78125 48.09375 
Q 58.015625 40.1875 58.015625 27.296875 
Q 58.015625 14.40625 51.78125 6.484375 
Q 45.5625 -1.421875 35.59375 -1.421875 
Q 29.59375 -1.421875 25.265625 0.953125 
Q 20.953125 3.328125 18.109375 8.203125 
z
M 48.6875 27.296875 
Q 48.6875 37.203125 44.609375 42.84375 
Q 40.53125 48.484375 33.40625 48.484375 
Q 26.265625 48.484375 22.1875 42.84375 
Q 18.109375 37.203125 18.109375 27.296875 
Q 18.109375 17.390625 22.1875 11.75 
Q 26.265625 6.109375 33.40625 6.109375 
Q 40.53125 6.109375 44.609375 11.75 
Q 48.6875 17.390625 48.6875 27.296875 
z
" id="DejaVuSans-112"/>
       <path d="M 18.3125 70.21875 
L 18.3125 54.6875 
L 36.8125 54.6875 
L 36.8125 47.703125 
L 18.3125 47.703125 
L 18.3125 18.015625 
Q 18.3125 11.328125 20.140625 9.421875 
Q 21.96875 7.515625 27.59375 7.515625 
L 36.8125 7.515625 
L 36.8125 0 
L 27.59375 0 
Q 17.1875 0 13.234375 3.875 
Q 9.28125 7.765625 9.28125 18.015625 
L 9.28125 47.703125 
L 2.6875 47.703125 
L 2.6875 54.6875 
L 9.28125 54.6875 
L 9.28125 70.21875 
z
" id="DejaVuSans-116"/>
       <path d="M 8.015625 75.875 
L 15.828125 75.875 
Q 23.140625 64.359375 26.78125 53.3125 
Q 30.421875 42.28125 30.421875 31.390625 
Q 30.421875 20.453125 26.78125 9.375 
Q 23.140625 -1.703125 15.828125 -13.1875 
L 8.015625 -13.1875 
Q 14.5 -2 17.703125 9.0625 
Q 20.90625 20.125 20.90625 31.390625 
Q 20.90625 42.671875 17.703125 53.65625 
Q 14.5 64.65625 8.015625 75.875 
z
" id="DejaVuSans-41"/>
      </defs>
      <use xlink:href="#DejaVuSans-115"/>
      <use x="52.099609" xlink:href="#DejaVuSans-117"/>
      <use x="115.478516" xlink:href="#DejaVuSans-99"/>
      <use x="170.458984" xlink:href="#DejaVuSans-99"/>
      <use x="225.439453" xlink:href="#DejaVuSans-101"/>
      <use x="286.962891" xlink:href="#DejaVuSans-115"/>
      <use x="339.0625" xlink:href="#DejaVuSans-115"/>
      <use x="391.162109" xlink:href="#DejaVuSans-102"/>
      <use x="426.367188" xlink:href="#DejaVuSans-117"/>
      <use x="489.746094" xlink:href="#DejaVuSans-108"/>
      <use x="517.529297" xlink:href="#DejaVuSans-32"/>
      <use x="549.316406" xlink:href="#DejaVuSans-114"/>
      <use x="588.179688" xlink:href="#DejaVuSans-101"/>
      <use x="649.703125" xlink:href="#DejaVuSans-118"/>
      <use x="708.882812" xlink:href="#DejaVuSans-101"/>
      <use x="770.40625" xlink:href="#DejaVuSans-114"/>
      <use x="811.519531" xlink:href="#DejaVuSans-115"/>
      <use x="863.619141" xlink:href="#DejaVuSans-101"/>
      <use x="925.142578" xlink:href="#DejaVuSans-40"/>
      <use x="964.15625" xlink:href="#DejaVuSans-110"/>
      <use x="1027.535156" xlink:href="#DejaVuSans-111"/>
      <use x="1088.716797" xlink:href="#DejaVuSans-32"/>
      <use x="1120.503906" xlink:href="#DejaVuSans-112"/>
      <use x="1183.980469" xlink:href="#DejaVuSans-114"/>
      <use x="1222.84375" xlink:href="#DejaVuSans-111"/>
      <use x="1284.025391" xlink:href="#DejaVuSans-116"/>
      <use x="1323.234375" xlink:href="#DejaVuSans-101"/>
      <use x="1384.757812" xlink:href="#DejaVuSans-99"/>
      <use x="1439.738281" xlink:href="#DejaVuSans-116"/>
      <use x="1478.947266" xlink:href="#DejaVuSans-105"/>
      <use x="1506.730469" xlink:href="#DejaVuSans-111"/>
      <use x="1567.912109" xlink:href="#DejaVuSans-110"/>
      <use x="1631.291016" xlink:href="#DejaVuSans-41"/>
     </g>
    </g>
    <g id="patch_141">
     <path d="M 610.949687 42.275781 
L 630.949687 42.275781 
L 630.949687 35.275781 
L 610.949687 35.275781 
z
" style="fill:#ffa500;"/>
    </g>
    <g id="text_42">
     <!-- invaild reverse(no protection) -->
     <g transform="translate(638.949687 42.275781)scale(0.1 -0.1)">
      <defs>
       <path d="M 45.40625 46.390625 
L 45.40625 75.984375 
L 54.390625 75.984375 
L 54.390625 0 
L 45.40625 0 
L 45.40625 8.203125 
Q 42.578125 3.328125 38.25 0.953125 
Q 33.9375 -1.421875 27.875 -1.421875 
Q 17.96875 -1.421875 11.734375 6.484375 
Q 5.515625 14.40625 5.515625 27.296875 
Q 5.515625 40.1875 11.734375 48.09375 
Q 17.96875 56 27.875 56 
Q 33.9375 56 38.25 53.625 
Q 42.578125 51.265625 45.40625 46.390625 
z
M 14.796875 27.296875 
Q 14.796875 17.390625 18.875 11.75 
Q 22.953125 6.109375 30.078125 6.109375 
Q 37.203125 6.109375 41.296875 11.75 
Q 45.40625 17.390625 45.40625 27.296875 
Q 45.40625 37.203125 41.296875 42.84375 
Q 37.203125 48.484375 30.078125 48.484375 
Q 22.953125 48.484375 18.875 42.84375 
Q 14.796875 37.203125 14.796875 27.296875 
z
" id="DejaVuSans-100"/>
      </defs>
      <use xlink:href="#DejaVuSans-105"/>
      <use x="27.783203" xlink:href="#DejaVuSans-110"/>
      <use x="91.162109" xlink:href="#DejaVuSans-118"/>
      <use x="150.341797" xlink:href="#DejaVuSans-97"/>
      <use x="211.621094" xlink:href="#DejaVuSans-105"/>
      <use x="239.404297" xlink:href="#DejaVuSans-108"/>
      <use x="267.1875" xlink:href="#DejaVuSans-100"/>
      <use x="330.664062" xlink:href="#DejaVuSans-32"/>
      <use x="362.451172" xlink:href="#DejaVuSans-114"/>
      <use x="401.314453" xlink:href="#DejaVuSans-101"/>
      <use x="462.837891" xlink:href="#DejaVuSans-118"/>
      <use x="522.017578" xlink:href="#DejaVuSans-101"/>
      <use x="583.541016" xlink:href="#DejaVuSans-114"/>
      <use x="624.654297" xlink:href="#DejaVuSans-115"/>
      <use x="676.753906" xlink:href="#DejaVuSans-101"/>
      <use x="738.277344" xlink:href="#DejaVuSans-40"/>
      <use x="777.291016" xlink:href="#DejaVuSans-110"/>
      <use x="840.669922" xlink:href="#DejaVuSans-111"/>
      <use x="901.851562" xlink:href="#DejaVuSans-32"/>
      <use x="933.638672" xlink:href="#DejaVuSans-112"/>
      <use x="997.115234" xlink:href="#DejaVuSans-114"/>
      <use x="1035.978516" xlink:href="#DejaVuSans-111"/>
      <use x="1097.160156" xlink:href="#DejaVuSans-116"/>
      <use x="1136.369141" xlink:href="#DejaVuSans-101"/>
      <use x="1197.892578" xlink:href="#DejaVuSans-99"/>
      <use x="1252.873047" xlink:href="#DejaVuSans-116"/>
      <use x="1292.082031" xlink:href="#DejaVuSans-105"/>
      <use x="1319.865234" xlink:href="#DejaVuSans-111"/>
      <use x="1381.046875" xlink:href="#DejaVuSans-110"/>
      <use x="1444.425781" xlink:href="#DejaVuSans-41"/>
     </g>
    </g>
    <g id="patch_142">
     <path d="M 610.949687 56.953906 
L 630.949687 56.953906 
L 630.949687 49.953906 
L 610.949687 49.953906 
z
" style="fill:#b0c4de;"/>
    </g>
    <g id="text_43">
     <!-- successful reverse(with protection) -->
     <g transform="translate(638.949687 56.953906)scale(0.1 -0.1)">
      <defs>
       <path d="M 4.203125 54.6875 
L 13.1875 54.6875 
L 24.421875 12.015625 
L 35.59375 54.6875 
L 46.1875 54.6875 
L 57.421875 12.015625 
L 68.609375 54.6875 
L 77.59375 54.6875 
L 63.28125 0 
L 52.6875 0 
L 40.921875 44.828125 
L 29.109375 0 
L 18.5 0 
z
" id="DejaVuSans-119"/>
       <path d="M 54.890625 33.015625 
L 54.890625 0 
L 45.90625 0 
L 45.90625 32.71875 
Q 45.90625 40.484375 42.875 44.328125 
Q 39.84375 48.1875 33.796875 48.1875 
Q 26.515625 48.1875 22.3125 43.546875 
Q 18.109375 38.921875 18.109375 30.90625 
L 18.109375 0 
L 9.078125 0 
L 9.078125 75.984375 
L 18.109375 75.984375 
L 18.109375 46.1875 
Q 21.34375 51.125 25.703125 53.5625 
Q 30.078125 56 35.796875 56 
Q 45.21875 56 50.046875 50.171875 
Q 54.890625 44.34375 54.890625 33.015625 
z
" id="DejaVuSans-104"/>
      </defs>
      <use xlink:href="#DejaVuSans-115"/>
      <use x="52.099609" xlink:href="#DejaVuSans-117"/>
      <use x="115.478516" xlink:href="#DejaVuSans-99"/>
      <use x="170.458984" xlink:href="#DejaVuSans-99"/>
      <use x="225.439453" xlink:href="#DejaVuSans-101"/>
      <use x="286.962891" xlink:href="#DejaVuSans-115"/>
      <use x="339.0625" xlink:href="#DejaVuSans-115"/>
      <use x="391.162109" xlink:href="#DejaVuSans-102"/>
      <use x="426.367188" xlink:href="#DejaVuSans-117"/>
      <use x="489.746094" xlink:href="#DejaVuSans-108"/>
      <use x="517.529297" xlink:href="#DejaVuSans-32"/>
      <use x="549.316406" xlink:href="#DejaVuSans-114"/>
      <use x="588.179688" xlink:href="#DejaVuSans-101"/>
      <use x="649.703125" xlink:href="#DejaVuSans-118"/>
      <use x="708.882812" xlink:href="#DejaVuSans-101"/>
      <use x="770.40625" xlink:href="#DejaVuSans-114"/>
      <use x="811.519531" xlink:href="#DejaVuSans-115"/>
      <use x="863.619141" xlink:href="#DejaVuSans-101"/>
      <use x="925.142578" xlink:href="#DejaVuSans-40"/>
      <use x="964.15625" xlink:href="#DejaVuSans-119"/>
      <use x="1045.943359" xlink:href="#DejaVuSans-105"/>
      <use x="1073.726562" xlink:href="#DejaVuSans-116"/>
      <use x="1112.935547" xlink:href="#DejaVuSans-104"/>
      <use x="1176.314453" xlink:href="#DejaVuSans-32"/>
      <use x="1208.101562" xlink:href="#DejaVuSans-112"/>
      <use x="1271.578125" xlink:href="#DejaVuSans-114"/>
      <use x="1310.441406" xlink:href="#DejaVuSans-111"/>
      <use x="1371.623047" xlink:href="#DejaVuSans-116"/>
      <use x="1410.832031" xlink:href="#DejaVuSans-101"/>
      <use x="1472.355469" xlink:href="#DejaVuSans-99"/>
      <use x="1527.335938" xlink:href="#DejaVuSans-116"/>
      <use x="1566.544922" xlink:href="#DejaVuSans-105"/>
      <use x="1594.328125" xlink:href="#DejaVuSans-111"/>
      <use x="1655.509766" xlink:href="#DejaVuSans-110"/>
      <use x="1718.888672" xlink:href="#DejaVuSans-41"/>
     </g>
    </g>
    <g id="patch_143">
     <path d="M 610.949687 71.632031 
L 630.949687 71.632031 
L 630.949687 64.632031 
L 610.949687 64.632031 
z
" style="fill:#ffe4c4;"/>
    </g>
    <g id="text_44">
     <!-- invaild reverse(with protection) -->
     <g transform="translate(638.949687 71.632031)scale(0.1 -0.1)">
      <use xlink:href="#DejaVuSans-105"/>
      <use x="27.783203" xlink:href="#DejaVuSans-110"/>
      <use x="91.162109" xlink:href="#DejaVuSans-118"/>
      <use x="150.341797" xlink:href="#DejaVuSans-97"/>
      <use x="211.621094" xlink:href="#DejaVuSans-105"/>
      <use x="239.404297" xlink:href="#DejaVuSans-108"/>
      <use x="267.1875" xlink:href="#DejaVuSans-100"/>
      <use x="330.664062" xlink:href="#DejaVuSans-32"/>
      <use x="362.451172" xlink:href="#DejaVuSans-114"/>
      <use x="401.314453" xlink:href="#DejaVuSans-101"/>
      <use x="462.837891" xlink:href="#DejaVuSans-118"/>
      <use x="522.017578" xlink:href="#DejaVuSans-101"/>
      <use x="583.541016" xlink:href="#DejaVuSans-114"/>
      <use x="624.654297" xlink:href="#DejaVuSans-115"/>
      <use x="676.753906" xlink:href="#DejaVuSans-101"/>
      <use x="738.277344" xlink:href="#DejaVuSans-40"/>
      <use x="777.291016" xlink:href="#DejaVuSans-119"/>
      <use x="859.078125" xlink:href="#DejaVuSans-105"/>
      <use x="886.861328" xlink:href="#DejaVuSans-116"/>
      <use x="926.070312" xlink:href="#DejaVuSans-104"/>
      <use x="989.449219" xlink:href="#DejaVuSans-32"/>
      <use x="1021.236328" xlink:href="#DejaVuSans-112"/>
      <use x="1084.712891" xlink:href="#DejaVuSans-114"/>
      <use x="1123.576172" xlink:href="#DejaVuSans-111"/>
      <use x="1184.757812" xlink:href="#DejaVuSans-116"/>
      <use x="1223.966797" xlink:href="#DejaVuSans-101"/>
      <use x="1285.490234" xlink:href="#DejaVuSans-99"/>
      <use x="1340.470703" xlink:href="#DejaVuSans-116"/>
      <use x="1379.679688" xlink:href="#DejaVuSans-105"/>
      <use x="1407.462891" xlink:href="#DejaVuSans-111"/>
      <use x="1468.644531" xlink:href="#DejaVuSans-110"/>
      <use x="1532.023438" xlink:href="#DejaVuSans-41"/>
     </g>
    </g>
   </g>
  </g>
 </g>
 <defs>
  <clipPath id="pe3bb90cc1e">
   <rect height="326.16" width="781.2" x="42.53875" y="10.999219"/>
  </clipPath>
 </defs>
</svg>
