<?xml version="1.0" encoding="utf-8" standalone="no"?>
<!DOCTYPE svg PUBLIC "-//W3C//DTD SVG 1.1//EN"
  "http://www.w3.org/Graphics/SVG/1.1/DTD/svg11.dtd">
<svg xmlns:xlink="http://www.w3.org/1999/xlink" width="715.899375pt" height="371.542187pt" viewBox="0 0 715.899375 371.542187" xmlns="http://www.w3.org/2000/svg" version="1.1">
 <metadata>
  <rdf:RDF xmlns:dc="http://purl.org/dc/elements/1.1/" xmlns:cc="http://creativecommons.org/ns#" xmlns:rdf="http://www.w3.org/1999/02/22-rdf-syntax-ns#">
   <cc:Work>
    <dc:type rdf:resource="http://purl.org/dc/dcmitype/StillImage"/>
    <dc:date>2022-12-06T12:31:11.927487</dc:date>
    <dc:format>image/svg+xml</dc:format>
    <dc:creator>
     <cc:Agent>
      <dc:title>Matplotlib v3.5.1, https://matplotlib.org/</dc:title>
     </cc:Agent>
    </dc:creator>
   </cc:Work>
  </rdf:RDF>
 </metadata>
 <defs>
  <style type="text/css">*{stroke-linejoin: round; stroke-linecap: butt}</style>
 </defs>
 <g id="figure_1">
  <g id="patch_1">
   <path d="M 0 371.542187 
L 715.899375 371.542187 
L 715.899375 0 
L 0 0 
L 0 371.542187 
z
" style="fill: none"/>
  </g>
  <g id="axes_1">
   <g id="patch_2">
    <path d="M 39.099375 333.36 
L 708.699375 333.36 
L 708.699375 7.2 
L 39.099375 7.2 
z
" style="fill: #ffffff"/>
   </g>
   <g id="patch_3">
    <path d="M 69.535739 333.36 
L 76.051168 333.36 
L 76.051168 305.121039 
L 69.535739 305.121039 
z
" clip-path="url(#pc9ad4035b9)" style="fill: #2878b5"/>
   </g>
   <g id="patch_4">
    <path d="M 88.151252 333.36 
L 94.666681 333.36 
L 94.666681 50.97039 
L 88.151252 50.97039 
z
" clip-path="url(#pc9ad4035b9)" style="fill: #2878b5"/>
   </g>
   <g id="patch_5">
    <path d="M 106.766764 333.36 
L 113.282194 333.36 
L 113.282194 50.97039 
L 106.766764 50.97039 
z
" clip-path="url(#pc9ad4035b9)" style="fill: #2878b5"/>
   </g>
   <g id="patch_6">
    <path d="M 125.382277 333.36 
L 131.897707 333.36 
L 131.897707 79.209351 
L 125.382277 79.209351 
z
" clip-path="url(#pc9ad4035b9)" style="fill: #2878b5"/>
   </g>
   <g id="patch_7">
    <path d="M 143.99779 333.36 
L 150.51322 333.36 
L 150.51322 50.97039 
L 143.99779 50.97039 
z
" clip-path="url(#pc9ad4035b9)" style="fill: #2878b5"/>
   </g>
   <g id="patch_8">
    <path d="M 162.613303 333.36 
L 169.128733 333.36 
L 169.128733 50.97039 
L 162.613303 50.97039 
z
" clip-path="url(#pc9ad4035b9)" style="fill: #2878b5"/>
   </g>
   <g id="patch_9">
    <path d="M 181.228816 333.36 
L 187.744246 333.36 
L 187.744246 234.523636 
L 181.228816 234.523636 
z
" clip-path="url(#pc9ad4035b9)" style="fill: #2878b5"/>
   </g>
   <g id="patch_10">
    <path d="M 199.844329 333.36 
L 206.359759 333.36 
L 206.359759 93.328831 
L 199.844329 93.328831 
z
" clip-path="url(#pc9ad4035b9)" style="fill: #2878b5"/>
   </g>
   <g id="patch_11">
    <path d="M 218.459842 333.36 
L 224.975272 333.36 
L 224.975272 220.404156 
L 218.459842 220.404156 
z
" clip-path="url(#pc9ad4035b9)" style="fill: #2878b5"/>
   </g>
   <g id="patch_12">
    <path d="M 237.075355 333.36 
L 243.590785 333.36 
L 243.590785 305.121039 
L 237.075355 305.121039 
z
" clip-path="url(#pc9ad4035b9)" style="fill: #2878b5"/>
   </g>
   <g id="patch_13">
    <path d="M 255.690868 333.36 
L 262.206297 333.36 
L 262.206297 121.567792 
L 255.690868 121.567792 
z
" clip-path="url(#pc9ad4035b9)" style="fill: #2878b5"/>
   </g>
   <g id="patch_14">
    <path d="M 274.306381 333.36 
L 280.82181 333.36 
L 280.82181 50.97039 
L 274.306381 50.97039 
z
" clip-path="url(#pc9ad4035b9)" style="fill: #2878b5"/>
   </g>
   <g id="patch_15">
    <path d="M 292.921894 333.36 
L 299.437323 333.36 
L 299.437323 262.762597 
L 292.921894 262.762597 
z
" clip-path="url(#pc9ad4035b9)" style="fill: #2878b5"/>
   </g>
   <g id="patch_16">
    <path d="M 311.537407 333.36 
L 318.052836 333.36 
L 318.052836 206.284675 
L 311.537407 206.284675 
z
" clip-path="url(#pc9ad4035b9)" style="fill: #2878b5"/>
   </g>
   <g id="patch_17">
    <path d="M 330.15292 333.36 
L 336.668349 333.36 
L 336.668349 50.97039 
L 330.15292 50.97039 
z
" clip-path="url(#pc9ad4035b9)" style="fill: #2878b5"/>
   </g>
   <g id="patch_18">
    <path d="M 348.768433 333.36 
L 355.283862 333.36 
L 355.283862 262.762597 
L 348.768433 262.762597 
z
" clip-path="url(#pc9ad4035b9)" style="fill: #2878b5"/>
   </g>
   <g id="patch_19">
    <path d="M 367.383945 333.36 
L 373.899375 333.36 
L 373.899375 50.97039 
L 367.383945 50.97039 
z
" clip-path="url(#pc9ad4035b9)" style="fill: #2878b5"/>
   </g>
   <g id="patch_20">
    <path d="M 385.999458 333.36 
L 392.514888 333.36 
L 392.514888 178.045714 
L 385.999458 178.045714 
z
" clip-path="url(#pc9ad4035b9)" style="fill: #2878b5"/>
   </g>
   <g id="patch_21">
    <path d="M 404.614971 333.36 
L 411.130401 333.36 
L 411.130401 206.284675 
L 404.614971 206.284675 
z
" clip-path="url(#pc9ad4035b9)" style="fill: #2878b5"/>
   </g>
   <g id="patch_22">
    <path d="M 423.230484 333.36 
L 429.745914 333.36 
L 429.745914 192.165195 
L 423.230484 192.165195 
z
" clip-path="url(#pc9ad4035b9)" style="fill: #2878b5"/>
   </g>
   <g id="patch_23">
    <path d="M 441.845997 333.36 
L 448.361427 333.36 
L 448.361427 262.762597 
L 441.845997 262.762597 
z
" clip-path="url(#pc9ad4035b9)" style="fill: #2878b5"/>
   </g>
   <g id="patch_24">
    <path d="M 460.46151 333.36 
L 466.97694 333.36 
L 466.97694 305.121039 
L 460.46151 305.121039 
z
" clip-path="url(#pc9ad4035b9)" style="fill: #2878b5"/>
   </g>
   <g id="patch_25">
    <path d="M 479.077023 333.36 
L 485.592453 333.36 
L 485.592453 305.121039 
L 479.077023 305.121039 
z
" clip-path="url(#pc9ad4035b9)" style="fill: #2878b5"/>
   </g>
   <g id="patch_26">
    <path d="M 497.692536 333.36 
L 504.207965 333.36 
L 504.207965 319.240519 
L 497.692536 319.240519 
z
" clip-path="url(#pc9ad4035b9)" style="fill: #2878b5"/>
   </g>
   <g id="patch_27">
    <path d="M 516.308049 333.36 
L 522.823478 333.36 
L 522.823478 291.001558 
L 516.308049 291.001558 
z
" clip-path="url(#pc9ad4035b9)" style="fill: #2878b5"/>
   </g>
   <g id="patch_28">
    <path d="M 534.923562 333.36 
L 541.438991 333.36 
L 541.438991 291.001558 
L 534.923562 291.001558 
z
" clip-path="url(#pc9ad4035b9)" style="fill: #2878b5"/>
   </g>
   <g id="patch_29">
    <path d="M 553.539075 333.36 
L 560.054504 333.36 
L 560.054504 291.001558 
L 553.539075 291.001558 
z
" clip-path="url(#pc9ad4035b9)" style="fill: #2878b5"/>
   </g>
   <g id="patch_30">
    <path d="M 572.154588 333.36 
L 578.670017 333.36 
L 578.670017 305.121039 
L 572.154588 305.121039 
z
" clip-path="url(#pc9ad4035b9)" style="fill: #2878b5"/>
   </g>
   <g id="patch_31">
    <path d="M 590.770101 333.36 
L 597.28553 333.36 
L 597.28553 50.97039 
L 590.770101 50.97039 
z
" clip-path="url(#pc9ad4035b9)" style="fill: #2878b5"/>
   </g>
   <g id="patch_32">
    <path d="M 609.385614 333.36 
L 615.901043 333.36 
L 615.901043 50.97039 
L 609.385614 50.97039 
z
" clip-path="url(#pc9ad4035b9)" style="fill: #2878b5"/>
   </g>
   <g id="patch_33">
    <path d="M 628.001126 333.36 
L 634.516556 333.36 
L 634.516556 248.643117 
L 628.001126 248.643117 
z
" clip-path="url(#pc9ad4035b9)" style="fill: #2878b5"/>
   </g>
   <g id="patch_34">
    <path d="M 646.616639 333.36 
L 653.132069 333.36 
L 653.132069 248.643117 
L 646.616639 248.643117 
z
" clip-path="url(#pc9ad4035b9)" style="fill: #2878b5"/>
   </g>
   <g id="patch_35">
    <path d="M 665.232152 333.36 
L 671.747582 333.36 
L 671.747582 178.045714 
L 665.232152 178.045714 
z
" clip-path="url(#pc9ad4035b9)" style="fill: #2878b5"/>
   </g>
   <g id="patch_36">
    <path d="M 69.535739 305.121039 
L 76.051168 305.121039 
L 76.051168 22.731429 
L 69.535739 22.731429 
z
" clip-path="url(#pc9ad4035b9)" style="fill: #c82423"/>
   </g>
   <g id="patch_37">
    <path d="M 88.151252 50.97039 
L 94.666681 50.97039 
L 94.666681 22.731429 
L 88.151252 22.731429 
z
" clip-path="url(#pc9ad4035b9)" style="fill: #c82423"/>
   </g>
   <g id="patch_38">
    <path d="M 106.766764 50.97039 
L 113.282194 50.97039 
L 113.282194 22.731429 
L 106.766764 22.731429 
z
" clip-path="url(#pc9ad4035b9)" style="fill: #c82423"/>
   </g>
   <g id="patch_39">
    <path d="M 125.382277 79.209351 
L 131.897707 79.209351 
L 131.897707 22.731429 
L 125.382277 22.731429 
z
" clip-path="url(#pc9ad4035b9)" style="fill: #c82423"/>
   </g>
   <g id="patch_40">
    <path d="M 143.99779 50.97039 
L 150.51322 50.97039 
L 150.51322 22.731429 
L 143.99779 22.731429 
z
" clip-path="url(#pc9ad4035b9)" style="fill: #c82423"/>
   </g>
   <g id="patch_41">
    <path d="M 162.613303 50.97039 
L 169.128733 50.97039 
L 169.128733 22.731429 
L 162.613303 22.731429 
z
" clip-path="url(#pc9ad4035b9)" style="fill: #c82423"/>
   </g>
   <g id="patch_42">
    <path d="M 181.228816 234.523636 
L 187.744246 234.523636 
L 187.744246 22.731429 
L 181.228816 22.731429 
z
" clip-path="url(#pc9ad4035b9)" style="fill: #c82423"/>
   </g>
   <g id="patch_43">
    <path d="M 199.844329 93.328831 
L 206.359759 93.328831 
L 206.359759 22.731429 
L 199.844329 22.731429 
z
" clip-path="url(#pc9ad4035b9)" style="fill: #c82423"/>
   </g>
   <g id="patch_44">
    <path d="M 218.459842 220.404156 
L 224.975272 220.404156 
L 224.975272 22.731429 
L 218.459842 22.731429 
z
" clip-path="url(#pc9ad4035b9)" style="fill: #c82423"/>
   </g>
   <g id="patch_45">
    <path d="M 237.075355 305.121039 
L 243.590785 305.121039 
L 243.590785 22.731429 
L 237.075355 22.731429 
z
" clip-path="url(#pc9ad4035b9)" style="fill: #c82423"/>
   </g>
   <g id="patch_46">
    <path d="M 255.690868 121.567792 
L 262.206297 121.567792 
L 262.206297 22.731429 
L 255.690868 22.731429 
z
" clip-path="url(#pc9ad4035b9)" style="fill: #c82423"/>
   </g>
   <g id="patch_47">
    <path d="M 274.306381 50.97039 
L 280.82181 50.97039 
L 280.82181 22.731429 
L 274.306381 22.731429 
z
" clip-path="url(#pc9ad4035b9)" style="fill: #c82423"/>
   </g>
   <g id="patch_48">
    <path d="M 292.921894 262.762597 
L 299.437323 262.762597 
L 299.437323 22.731429 
L 292.921894 22.731429 
z
" clip-path="url(#pc9ad4035b9)" style="fill: #c82423"/>
   </g>
   <g id="patch_49">
    <path d="M 311.537407 206.284675 
L 318.052836 206.284675 
L 318.052836 22.731429 
L 311.537407 22.731429 
z
" clip-path="url(#pc9ad4035b9)" style="fill: #c82423"/>
   </g>
   <g id="patch_50">
    <path d="M 330.15292 50.97039 
L 336.668349 50.97039 
L 336.668349 22.731429 
L 330.15292 22.731429 
z
" clip-path="url(#pc9ad4035b9)" style="fill: #c82423"/>
   </g>
   <g id="patch_51">
    <path d="M 348.768433 262.762597 
L 355.283862 262.762597 
L 355.283862 22.731429 
L 348.768433 22.731429 
z
" clip-path="url(#pc9ad4035b9)" style="fill: #c82423"/>
   </g>
   <g id="patch_52">
    <path d="M 367.383945 50.97039 
L 373.899375 50.97039 
L 373.899375 22.731429 
L 367.383945 22.731429 
z
" clip-path="url(#pc9ad4035b9)" style="fill: #c82423"/>
   </g>
   <g id="patch_53">
    <path d="M 385.999458 178.045714 
L 392.514888 178.045714 
L 392.514888 22.731429 
L 385.999458 22.731429 
z
" clip-path="url(#pc9ad4035b9)" style="fill: #c82423"/>
   </g>
   <g id="patch_54">
    <path d="M 404.614971 206.284675 
L 411.130401 206.284675 
L 411.130401 22.731429 
L 404.614971 22.731429 
z
" clip-path="url(#pc9ad4035b9)" style="fill: #c82423"/>
   </g>
   <g id="patch_55">
    <path d="M 423.230484 192.165195 
L 429.745914 192.165195 
L 429.745914 22.731429 
L 423.230484 22.731429 
z
" clip-path="url(#pc9ad4035b9)" style="fill: #c82423"/>
   </g>
   <g id="patch_56">
    <path d="M 441.845997 262.762597 
L 448.361427 262.762597 
L 448.361427 22.731429 
L 441.845997 22.731429 
z
" clip-path="url(#pc9ad4035b9)" style="fill: #c82423"/>
   </g>
   <g id="patch_57">
    <path d="M 460.46151 305.121039 
L 466.97694 305.121039 
L 466.97694 22.731429 
L 460.46151 22.731429 
z
" clip-path="url(#pc9ad4035b9)" style="fill: #c82423"/>
   </g>
   <g id="patch_58">
    <path d="M 479.077023 305.121039 
L 485.592453 305.121039 
L 485.592453 22.731429 
L 479.077023 22.731429 
z
" clip-path="url(#pc9ad4035b9)" style="fill: #c82423"/>
   </g>
   <g id="patch_59">
    <path d="M 497.692536 319.240519 
L 504.207965 319.240519 
L 504.207965 22.731429 
L 497.692536 22.731429 
z
" clip-path="url(#pc9ad4035b9)" style="fill: #c82423"/>
   </g>
   <g id="patch_60">
    <path d="M 516.308049 291.001558 
L 522.823478 291.001558 
L 522.823478 22.731429 
L 516.308049 22.731429 
z
" clip-path="url(#pc9ad4035b9)" style="fill: #c82423"/>
   </g>
   <g id="patch_61">
    <path d="M 534.923562 291.001558 
L 541.438991 291.001558 
L 541.438991 22.731429 
L 534.923562 22.731429 
z
" clip-path="url(#pc9ad4035b9)" style="fill: #c82423"/>
   </g>
   <g id="patch_62">
    <path d="M 553.539075 291.001558 
L 560.054504 291.001558 
L 560.054504 22.731429 
L 553.539075 22.731429 
z
" clip-path="url(#pc9ad4035b9)" style="fill: #c82423"/>
   </g>
   <g id="patch_63">
    <path d="M 572.154588 305.121039 
L 578.670017 305.121039 
L 578.670017 22.731429 
L 572.154588 22.731429 
z
" clip-path="url(#pc9ad4035b9)" style="fill: #c82423"/>
   </g>
   <g id="patch_64">
    <path d="M 590.770101 50.97039 
L 597.28553 50.97039 
L 597.28553 22.731429 
L 590.770101 22.731429 
z
" clip-path="url(#pc9ad4035b9)" style="fill: #c82423"/>
   </g>
   <g id="patch_65">
    <path d="M 609.385614 50.97039 
L 615.901043 50.97039 
L 615.901043 22.731429 
L 609.385614 22.731429 
z
" clip-path="url(#pc9ad4035b9)" style="fill: #c82423"/>
   </g>
   <g id="patch_66">
    <path d="M 628.001126 248.643117 
L 634.516556 248.643117 
L 634.516556 22.731429 
L 628.001126 22.731429 
z
" clip-path="url(#pc9ad4035b9)" style="fill: #c82423"/>
   </g>
   <g id="patch_67">
    <path d="M 646.616639 248.643117 
L 653.132069 248.643117 
L 653.132069 22.731429 
L 646.616639 22.731429 
z
" clip-path="url(#pc9ad4035b9)" style="fill: #c82423"/>
   </g>
   <g id="patch_68">
    <path d="M 665.232152 178.045714 
L 671.747582 178.045714 
L 671.747582 22.731429 
L 665.232152 22.731429 
z
" clip-path="url(#pc9ad4035b9)" style="fill: #c82423"/>
   </g>
   <g id="patch_69">
    <path d="M 76.051168 333.36 
L 82.566598 333.36 
L 82.566598 319.240519 
L 76.051168 319.240519 
z
" clip-path="url(#pc9ad4035b9)" style="fill: #9ac9db"/>
   </g>
   <g id="patch_70">
    <path d="M 94.666681 333.36 
L 101.182111 333.36 
L 101.182111 36.850909 
L 94.666681 36.850909 
z
" clip-path="url(#pc9ad4035b9)" style="fill: #9ac9db"/>
   </g>
   <g id="patch_71">
    <path d="M 113.282194 333.36 
L 119.797624 333.36 
L 119.797624 79.209351 
L 113.282194 79.209351 
z
" clip-path="url(#pc9ad4035b9)" style="fill: #9ac9db"/>
   </g>
   <g id="patch_72">
    <path d="M 131.897707 333.36 
L 138.413136 333.36 
L 138.413136 135.687273 
L 131.897707 135.687273 
z
" clip-path="url(#pc9ad4035b9)" style="fill: #9ac9db"/>
   </g>
   <g id="patch_73">
    <path d="M 150.51322 333.36 
L 157.028649 333.36 
L 157.028649 50.97039 
L 150.51322 50.97039 
z
" clip-path="url(#pc9ad4035b9)" style="fill: #9ac9db"/>
   </g>
   <g id="patch_74">
    <path d="M 169.128733 333.36 
L 175.644162 333.36 
L 175.644162 50.97039 
L 169.128733 50.97039 
z
" clip-path="url(#pc9ad4035b9)" style="fill: #9ac9db"/>
   </g>
   <g id="patch_75">
    <path d="M 187.744246 333.36 
L 194.259675 333.36 
L 194.259675 192.165195 
L 187.744246 192.165195 
z
" clip-path="url(#pc9ad4035b9)" style="fill: #9ac9db"/>
   </g>
   <g id="patch_76">
    <path d="M 206.359759 333.36 
L 212.875188 333.36 
L 212.875188 93.328831 
L 206.359759 93.328831 
z
" clip-path="url(#pc9ad4035b9)" style="fill: #9ac9db"/>
   </g>
   <g id="patch_77">
    <path d="M 224.975272 333.36 
L 231.490701 333.36 
L 231.490701 234.523636 
L 224.975272 234.523636 
z
" clip-path="url(#pc9ad4035b9)" style="fill: #9ac9db"/>
   </g>
   <g id="patch_78">
    <path d="M 243.590785 333.36 
L 250.106214 333.36 
L 250.106214 333.36 
L 243.590785 333.36 
z
" clip-path="url(#pc9ad4035b9)" style="fill: #9ac9db"/>
   </g>
   <g id="patch_79">
    <path d="M 262.206297 333.36 
L 268.721727 333.36 
L 268.721727 163.926234 
L 262.206297 163.926234 
z
" clip-path="url(#pc9ad4035b9)" style="fill: #9ac9db"/>
   </g>
   <g id="patch_80">
    <path d="M 280.82181 333.36 
L 287.33724 333.36 
L 287.33724 65.08987 
L 280.82181 65.08987 
z
" clip-path="url(#pc9ad4035b9)" style="fill: #9ac9db"/>
   </g>
   <g id="patch_81">
    <path d="M 299.437323 333.36 
L 305.952753 333.36 
L 305.952753 276.882078 
L 299.437323 276.882078 
z
" clip-path="url(#pc9ad4035b9)" style="fill: #9ac9db"/>
   </g>
   <g id="patch_82">
    <path d="M 318.052836 333.36 
L 324.568266 333.36 
L 324.568266 220.404156 
L 318.052836 220.404156 
z
" clip-path="url(#pc9ad4035b9)" style="fill: #9ac9db"/>
   </g>
   <g id="patch_83">
    <path d="M 336.668349 333.36 
L 343.183779 333.36 
L 343.183779 50.97039 
L 336.668349 50.97039 
z
" clip-path="url(#pc9ad4035b9)" style="fill: #9ac9db"/>
   </g>
   <g id="patch_84">
    <path d="M 355.283862 333.36 
L 361.799292 333.36 
L 361.799292 234.523636 
L 355.283862 234.523636 
z
" clip-path="url(#pc9ad4035b9)" style="fill: #9ac9db"/>
   </g>
   <g id="patch_85">
    <path d="M 373.899375 333.36 
L 380.414805 333.36 
L 380.414805 50.97039 
L 373.899375 50.97039 
z
" clip-path="url(#pc9ad4035b9)" style="fill: #9ac9db"/>
   </g>
   <g id="patch_86">
    <path d="M 392.514888 333.36 
L 399.030317 333.36 
L 399.030317 149.806753 
L 392.514888 149.806753 
z
" clip-path="url(#pc9ad4035b9)" style="fill: #9ac9db"/>
   </g>
   <g id="patch_87">
    <path d="M 411.130401 333.36 
L 417.64583 333.36 
L 417.64583 206.284675 
L 411.130401 206.284675 
z
" clip-path="url(#pc9ad4035b9)" style="fill: #9ac9db"/>
   </g>
   <g id="patch_88">
    <path d="M 429.745914 333.36 
L 436.261343 333.36 
L 436.261343 234.523636 
L 429.745914 234.523636 
z
" clip-path="url(#pc9ad4035b9)" style="fill: #9ac9db"/>
   </g>
   <g id="patch_89">
    <path d="M 448.361427 333.36 
L 454.876856 333.36 
L 454.876856 291.001558 
L 448.361427 291.001558 
z
" clip-path="url(#pc9ad4035b9)" style="fill: #9ac9db"/>
   </g>
   <g id="patch_90">
    <path d="M 466.97694 333.36 
L 473.492369 333.36 
L 473.492369 305.121039 
L 466.97694 305.121039 
z
" clip-path="url(#pc9ad4035b9)" style="fill: #9ac9db"/>
   </g>
   <g id="patch_91">
    <path d="M 485.592453 333.36 
L 492.107882 333.36 
L 492.107882 305.121039 
L 485.592453 305.121039 
z
" clip-path="url(#pc9ad4035b9)" style="fill: #9ac9db"/>
   </g>
   <g id="patch_92">
    <path d="M 504.207965 333.36 
L 510.723395 333.36 
L 510.723395 319.240519 
L 504.207965 319.240519 
z
" clip-path="url(#pc9ad4035b9)" style="fill: #9ac9db"/>
   </g>
   <g id="patch_93">
    <path d="M 522.823478 333.36 
L 529.338908 333.36 
L 529.338908 276.882078 
L 522.823478 276.882078 
z
" clip-path="url(#pc9ad4035b9)" style="fill: #9ac9db"/>
   </g>
   <g id="patch_94">
    <path d="M 541.438991 333.36 
L 547.954421 333.36 
L 547.954421 276.882078 
L 541.438991 276.882078 
z
" clip-path="url(#pc9ad4035b9)" style="fill: #9ac9db"/>
   </g>
   <g id="patch_95">
    <path d="M 560.054504 333.36 
L 566.569934 333.36 
L 566.569934 305.121039 
L 560.054504 305.121039 
z
" clip-path="url(#pc9ad4035b9)" style="fill: #9ac9db"/>
   </g>
   <g id="patch_96">
    <path d="M 578.670017 333.36 
L 585.185447 333.36 
L 585.185447 276.882078 
L 578.670017 276.882078 
z
" clip-path="url(#pc9ad4035b9)" style="fill: #9ac9db"/>
   </g>
   <g id="patch_97">
    <path d="M 597.28553 333.36 
L 603.80096 333.36 
L 603.80096 50.97039 
L 597.28553 50.97039 
z
" clip-path="url(#pc9ad4035b9)" style="fill: #9ac9db"/>
   </g>
   <g id="patch_98">
    <path d="M 615.901043 333.36 
L 622.416473 333.36 
L 622.416473 50.97039 
L 615.901043 50.97039 
z
" clip-path="url(#pc9ad4035b9)" style="fill: #9ac9db"/>
   </g>
   <g id="patch_99">
    <path d="M 634.516556 333.36 
L 641.031986 333.36 
L 641.031986 192.165195 
L 634.516556 192.165195 
z
" clip-path="url(#pc9ad4035b9)" style="fill: #9ac9db"/>
   </g>
   <g id="patch_100">
    <path d="M 653.132069 333.36 
L 659.647498 333.36 
L 659.647498 262.762597 
L 653.132069 262.762597 
z
" clip-path="url(#pc9ad4035b9)" style="fill: #9ac9db"/>
   </g>
   <g id="patch_101">
    <path d="M 671.747582 333.36 
L 678.263011 333.36 
L 678.263011 163.926234 
L 671.747582 163.926234 
z
" clip-path="url(#pc9ad4035b9)" style="fill: #9ac9db"/>
   </g>
   <g id="patch_102">
    <path d="M 76.051168 319.240519 
L 82.566598 319.240519 
L 82.566598 22.731429 
L 76.051168 22.731429 
z
" clip-path="url(#pc9ad4035b9)" style="fill: #f8ac8c"/>
   </g>
   <g id="patch_103">
    <path d="M 94.666681 36.850909 
L 101.182111 36.850909 
L 101.182111 22.731429 
L 94.666681 22.731429 
z
" clip-path="url(#pc9ad4035b9)" style="fill: #f8ac8c"/>
   </g>
   <g id="patch_104">
    <path d="M 113.282194 79.209351 
L 119.797624 79.209351 
L 119.797624 22.731429 
L 113.282194 22.731429 
z
" clip-path="url(#pc9ad4035b9)" style="fill: #f8ac8c"/>
   </g>
   <g id="patch_105">
    <path d="M 131.897707 135.687273 
L 138.413136 135.687273 
L 138.413136 22.731429 
L 131.897707 22.731429 
z
" clip-path="url(#pc9ad4035b9)" style="fill: #f8ac8c"/>
   </g>
   <g id="patch_106">
    <path d="M 150.51322 50.97039 
L 157.028649 50.97039 
L 157.028649 22.731429 
L 150.51322 22.731429 
z
" clip-path="url(#pc9ad4035b9)" style="fill: #f8ac8c"/>
   </g>
   <g id="patch_107">
    <path d="M 169.128733 50.97039 
L 175.644162 50.97039 
L 175.644162 22.731429 
L 169.128733 22.731429 
z
" clip-path="url(#pc9ad4035b9)" style="fill: #f8ac8c"/>
   </g>
   <g id="patch_108">
    <path d="M 187.744246 192.165195 
L 194.259675 192.165195 
L 194.259675 22.731429 
L 187.744246 22.731429 
z
" clip-path="url(#pc9ad4035b9)" style="fill: #f8ac8c"/>
   </g>
   <g id="patch_109">
    <path d="M 206.359759 93.328831 
L 212.875188 93.328831 
L 212.875188 22.731429 
L 206.359759 22.731429 
z
" clip-path="url(#pc9ad4035b9)" style="fill: #f8ac8c"/>
   </g>
   <g id="patch_110">
    <path d="M 224.975272 234.523636 
L 231.490701 234.523636 
L 231.490701 22.731429 
L 224.975272 22.731429 
z
" clip-path="url(#pc9ad4035b9)" style="fill: #f8ac8c"/>
   </g>
   <g id="patch_111">
    <path d="M 243.590785 333.36 
L 250.106214 333.36 
L 250.106214 22.731429 
L 243.590785 22.731429 
z
" clip-path="url(#pc9ad4035b9)" style="fill: #f8ac8c"/>
   </g>
   <g id="patch_112">
    <path d="M 262.206297 163.926234 
L 268.721727 163.926234 
L 268.721727 22.731429 
L 262.206297 22.731429 
z
" clip-path="url(#pc9ad4035b9)" style="fill: #f8ac8c"/>
   </g>
   <g id="patch_113">
    <path d="M 280.82181 65.08987 
L 287.33724 65.08987 
L 287.33724 22.731429 
L 280.82181 22.731429 
z
" clip-path="url(#pc9ad4035b9)" style="fill: #f8ac8c"/>
   </g>
   <g id="patch_114">
    <path d="M 299.437323 276.882078 
L 305.952753 276.882078 
L 305.952753 22.731429 
L 299.437323 22.731429 
z
" clip-path="url(#pc9ad4035b9)" style="fill: #f8ac8c"/>
   </g>
   <g id="patch_115">
    <path d="M 318.052836 220.404156 
L 324.568266 220.404156 
L 324.568266 22.731429 
L 318.052836 22.731429 
z
" clip-path="url(#pc9ad4035b9)" style="fill: #f8ac8c"/>
   </g>
   <g id="patch_116">
    <path d="M 336.668349 50.97039 
L 343.183779 50.97039 
L 343.183779 22.731429 
L 336.668349 22.731429 
z
" clip-path="url(#pc9ad4035b9)" style="fill: #f8ac8c"/>
   </g>
   <g id="patch_117">
    <path d="M 355.283862 234.523636 
L 361.799292 234.523636 
L 361.799292 22.731429 
L 355.283862 22.731429 
z
" clip-path="url(#pc9ad4035b9)" style="fill: #f8ac8c"/>
   </g>
   <g id="patch_118">
    <path d="M 373.899375 50.97039 
L 380.414805 50.97039 
L 380.414805 22.731429 
L 373.899375 22.731429 
z
" clip-path="url(#pc9ad4035b9)" style="fill: #f8ac8c"/>
   </g>
   <g id="patch_119">
    <path d="M 392.514888 149.806753 
L 399.030317 149.806753 
L 399.030317 22.731429 
L 392.514888 22.731429 
z
" clip-path="url(#pc9ad4035b9)" style="fill: #f8ac8c"/>
   </g>
   <g id="patch_120">
    <path d="M 411.130401 206.284675 
L 417.64583 206.284675 
L 417.64583 22.731429 
L 411.130401 22.731429 
z
" clip-path="url(#pc9ad4035b9)" style="fill: #f8ac8c"/>
   </g>
   <g id="patch_121">
    <path d="M 429.745914 234.523636 
L 436.261343 234.523636 
L 436.261343 22.731429 
L 429.745914 22.731429 
z
" clip-path="url(#pc9ad4035b9)" style="fill: #f8ac8c"/>
   </g>
   <g id="patch_122">
    <path d="M 448.361427 291.001558 
L 454.876856 291.001558 
L 454.876856 22.731429 
L 448.361427 22.731429 
z
" clip-path="url(#pc9ad4035b9)" style="fill: #f8ac8c"/>
   </g>
   <g id="patch_123">
    <path d="M 466.97694 305.121039 
L 473.492369 305.121039 
L 473.492369 22.731429 
L 466.97694 22.731429 
z
" clip-path="url(#pc9ad4035b9)" style="fill: #f8ac8c"/>
   </g>
   <g id="patch_124">
    <path d="M 485.592453 305.121039 
L 492.107882 305.121039 
L 492.107882 22.731429 
L 485.592453 22.731429 
z
" clip-path="url(#pc9ad4035b9)" style="fill: #f8ac8c"/>
   </g>
   <g id="patch_125">
    <path d="M 504.207965 319.240519 
L 510.723395 319.240519 
L 510.723395 22.731429 
L 504.207965 22.731429 
z
" clip-path="url(#pc9ad4035b9)" style="fill: #f8ac8c"/>
   </g>
   <g id="patch_126">
    <path d="M 522.823478 276.882078 
L 529.338908 276.882078 
L 529.338908 22.731429 
L 522.823478 22.731429 
z
" clip-path="url(#pc9ad4035b9)" style="fill: #f8ac8c"/>
   </g>
   <g id="patch_127">
    <path d="M 541.438991 276.882078 
L 547.954421 276.882078 
L 547.954421 22.731429 
L 541.438991 22.731429 
z
" clip-path="url(#pc9ad4035b9)" style="fill: #f8ac8c"/>
   </g>
   <g id="patch_128">
    <path d="M 560.054504 305.121039 
L 566.569934 305.121039 
L 566.569934 22.731429 
L 560.054504 22.731429 
z
" clip-path="url(#pc9ad4035b9)" style="fill: #f8ac8c"/>
   </g>
   <g id="patch_129">
    <path d="M 578.670017 276.882078 
L 585.185447 276.882078 
L 585.185447 22.731429 
L 578.670017 22.731429 
z
" clip-path="url(#pc9ad4035b9)" style="fill: #f8ac8c"/>
   </g>
   <g id="patch_130">
    <path d="M 597.28553 50.97039 
L 603.80096 50.97039 
L 603.80096 22.731429 
L 597.28553 22.731429 
z
" clip-path="url(#pc9ad4035b9)" style="fill: #f8ac8c"/>
   </g>
   <g id="patch_131">
    <path d="M 615.901043 50.97039 
L 622.416473 50.97039 
L 622.416473 22.731429 
L 615.901043 22.731429 
z
" clip-path="url(#pc9ad4035b9)" style="fill: #f8ac8c"/>
   </g>
   <g id="patch_132">
    <path d="M 634.516556 192.165195 
L 641.031986 192.165195 
L 641.031986 22.731429 
L 634.516556 22.731429 
z
" clip-path="url(#pc9ad4035b9)" style="fill: #f8ac8c"/>
   </g>
   <g id="patch_133">
    <path d="M 653.132069 262.762597 
L 659.647498 262.762597 
L 659.647498 22.731429 
L 653.132069 22.731429 
z
" clip-path="url(#pc9ad4035b9)" style="fill: #f8ac8c"/>
   </g>
   <g id="patch_134">
    <path d="M 671.747582 163.926234 
L 678.263011 163.926234 
L 678.263011 22.731429 
L 671.747582 22.731429 
z
" clip-path="url(#pc9ad4035b9)" style="fill: #f8ac8c"/>
   </g>
   <g id="matplotlib.axis_1">
    <g id="xtick_1">
     <g id="line2d_1">
      <defs>
       <path id="m2abf7e11ed" d="M 0 0 
L 0 3.5 
" style="stroke: #000000; stroke-width: 0.8"/>
      </defs>
      <g>
       <use xlink:href="#m2abf7e11ed" x="76.051168" y="333.36" style="stroke: #000000; stroke-width: 0.8"/>
      </g>
     </g>
     <g id="text_1">
      <!-- 1 -->
      <g transform="translate(73.551168 347.30375)scale(0.1 -0.1)">
       <defs>
        <path id="TimesNewRomanPSMT-31" d="M 750 3822 
L 1781 4325 
L 1884 4325 
L 1884 747 
Q 1884 391 1914 303 
Q 1944 216 2037 169 
Q 2131 122 2419 116 
L 2419 0 
L 825 0 
L 825 116 
Q 1125 122 1212 167 
Q 1300 213 1334 289 
Q 1369 366 1369 747 
L 1369 3034 
Q 1369 3497 1338 3628 
Q 1316 3728 1258 3775 
Q 1200 3822 1119 3822 
Q 1003 3822 797 3725 
L 750 3822 
z
" transform="scale(0.015625)"/>
       </defs>
       <use xlink:href="#TimesNewRomanPSMT-31"/>
      </g>
     </g>
    </g>
    <g id="xtick_2">
     <g id="line2d_2">
      <g>
       <use xlink:href="#m2abf7e11ed" x="94.666681" y="333.36" style="stroke: #000000; stroke-width: 0.8"/>
      </g>
     </g>
     <g id="text_2">
      <!-- 2 -->
      <g transform="translate(92.166681 347.30375)scale(0.1 -0.1)">
       <defs>
        <path id="TimesNewRomanPSMT-32" d="M 2934 816 
L 2638 0 
L 138 0 
L 138 116 
Q 1241 1122 1691 1759 
Q 2141 2397 2141 2925 
Q 2141 3328 1894 3587 
Q 1647 3847 1303 3847 
Q 991 3847 742 3664 
Q 494 3481 375 3128 
L 259 3128 
Q 338 3706 661 4015 
Q 984 4325 1469 4325 
Q 1984 4325 2329 3994 
Q 2675 3663 2675 3213 
Q 2675 2891 2525 2569 
Q 2294 2063 1775 1497 
Q 997 647 803 472 
L 1909 472 
Q 2247 472 2383 497 
Q 2519 522 2628 598 
Q 2738 675 2819 816 
L 2934 816 
z
" transform="scale(0.015625)"/>
       </defs>
       <use xlink:href="#TimesNewRomanPSMT-32"/>
      </g>
     </g>
    </g>
    <g id="xtick_3">
     <g id="line2d_3">
      <g>
       <use xlink:href="#m2abf7e11ed" x="113.282194" y="333.36" style="stroke: #000000; stroke-width: 0.8"/>
      </g>
     </g>
     <g id="text_3">
      <!-- 3 -->
      <g transform="translate(110.782194 347.30375)scale(0.1 -0.1)">
       <defs>
        <path id="TimesNewRomanPSMT-33" d="M 325 3431 
Q 506 3859 782 4092 
Q 1059 4325 1472 4325 
Q 1981 4325 2253 3994 
Q 2459 3747 2459 3466 
Q 2459 3003 1878 2509 
Q 2269 2356 2469 2072 
Q 2669 1788 2669 1403 
Q 2669 853 2319 450 
Q 1863 -75 997 -75 
Q 569 -75 414 31 
Q 259 138 259 259 
Q 259 350 332 419 
Q 406 488 509 488 
Q 588 488 669 463 
Q 722 447 909 348 
Q 1097 250 1169 231 
Q 1284 197 1416 197 
Q 1734 197 1970 444 
Q 2206 691 2206 1028 
Q 2206 1275 2097 1509 
Q 2016 1684 1919 1775 
Q 1784 1900 1550 2001 
Q 1316 2103 1072 2103 
L 972 2103 
L 972 2197 
Q 1219 2228 1467 2375 
Q 1716 2522 1828 2728 
Q 1941 2934 1941 3181 
Q 1941 3503 1739 3701 
Q 1538 3900 1238 3900 
Q 753 3900 428 3381 
L 325 3431 
z
" transform="scale(0.015625)"/>
       </defs>
       <use xlink:href="#TimesNewRomanPSMT-33"/>
      </g>
     </g>
    </g>
    <g id="xtick_4">
     <g id="line2d_4">
      <g>
       <use xlink:href="#m2abf7e11ed" x="131.897707" y="333.36" style="stroke: #000000; stroke-width: 0.8"/>
      </g>
     </g>
     <g id="text_4">
      <!-- 4 -->
      <g transform="translate(129.397707 347.30375)scale(0.1 -0.1)">
       <defs>
        <path id="TimesNewRomanPSMT-34" d="M 2978 1563 
L 2978 1119 
L 2409 1119 
L 2409 0 
L 1894 0 
L 1894 1119 
L 100 1119 
L 100 1519 
L 2066 4325 
L 2409 4325 
L 2409 1563 
L 2978 1563 
z
M 1894 1563 
L 1894 3666 
L 406 1563 
L 1894 1563 
z
" transform="scale(0.015625)"/>
       </defs>
       <use xlink:href="#TimesNewRomanPSMT-34"/>
      </g>
     </g>
    </g>
    <g id="xtick_5">
     <g id="line2d_5">
      <g>
       <use xlink:href="#m2abf7e11ed" x="150.51322" y="333.36" style="stroke: #000000; stroke-width: 0.8"/>
      </g>
     </g>
     <g id="text_5">
      <!-- 5 -->
      <g transform="translate(148.01322 347.30375)scale(0.1 -0.1)">
       <defs>
        <path id="TimesNewRomanPSMT-35" d="M 2778 4238 
L 2534 3706 
L 1259 3706 
L 981 3138 
Q 1809 3016 2294 2522 
Q 2709 2097 2709 1522 
Q 2709 1188 2573 903 
Q 2438 619 2231 419 
Q 2025 219 1772 97 
Q 1413 -75 1034 -75 
Q 653 -75 479 54 
Q 306 184 306 341 
Q 306 428 378 495 
Q 450 563 559 563 
Q 641 563 702 538 
Q 763 513 909 409 
Q 1144 247 1384 247 
Q 1750 247 2026 523 
Q 2303 800 2303 1197 
Q 2303 1581 2056 1914 
Q 1809 2247 1375 2428 
Q 1034 2569 447 2591 
L 1259 4238 
L 2778 4238 
z
" transform="scale(0.015625)"/>
       </defs>
       <use xlink:href="#TimesNewRomanPSMT-35"/>
      </g>
     </g>
    </g>
    <g id="xtick_6">
     <g id="line2d_6">
      <g>
       <use xlink:href="#m2abf7e11ed" x="169.128733" y="333.36" style="stroke: #000000; stroke-width: 0.8"/>
      </g>
     </g>
     <g id="text_6">
      <!-- 6 -->
      <g transform="translate(166.628733 347.30375)scale(0.1 -0.1)">
       <defs>
        <path id="TimesNewRomanPSMT-36" d="M 2869 4325 
L 2869 4209 
Q 2456 4169 2195 4045 
Q 1934 3922 1679 3669 
Q 1425 3416 1258 3105 
Q 1091 2794 978 2366 
Q 1428 2675 1881 2675 
Q 2316 2675 2634 2325 
Q 2953 1975 2953 1425 
Q 2953 894 2631 456 
Q 2244 -75 1606 -75 
Q 1172 -75 869 213 
Q 275 772 275 1663 
Q 275 2231 503 2743 
Q 731 3256 1154 3653 
Q 1578 4050 1965 4187 
Q 2353 4325 2688 4325 
L 2869 4325 
z
M 925 2138 
Q 869 1716 869 1456 
Q 869 1156 980 804 
Q 1091 453 1309 247 
Q 1469 100 1697 100 
Q 1969 100 2183 356 
Q 2397 613 2397 1088 
Q 2397 1622 2184 2012 
Q 1972 2403 1581 2403 
Q 1463 2403 1327 2353 
Q 1191 2303 925 2138 
z
" transform="scale(0.015625)"/>
       </defs>
       <use xlink:href="#TimesNewRomanPSMT-36"/>
      </g>
     </g>
    </g>
    <g id="xtick_7">
     <g id="line2d_7">
      <g>
       <use xlink:href="#m2abf7e11ed" x="187.744246" y="333.36" style="stroke: #000000; stroke-width: 0.8"/>
      </g>
     </g>
     <g id="text_7">
      <!-- 7 -->
      <g transform="translate(185.244246 347.30375)scale(0.1 -0.1)">
       <defs>
        <path id="TimesNewRomanPSMT-37" d="M 644 4238 
L 2916 4238 
L 2916 4119 
L 1503 -88 
L 1153 -88 
L 2419 3728 
L 1253 3728 
Q 900 3728 750 3644 
Q 488 3500 328 3200 
L 238 3234 
L 644 4238 
z
" transform="scale(0.015625)"/>
       </defs>
       <use xlink:href="#TimesNewRomanPSMT-37"/>
      </g>
     </g>
    </g>
    <g id="xtick_8">
     <g id="line2d_8">
      <g>
       <use xlink:href="#m2abf7e11ed" x="206.359759" y="333.36" style="stroke: #000000; stroke-width: 0.8"/>
      </g>
     </g>
     <g id="text_8">
      <!-- 8 -->
      <g transform="translate(203.859759 347.30375)scale(0.1 -0.1)">
       <defs>
        <path id="TimesNewRomanPSMT-38" d="M 1228 2134 
Q 725 2547 579 2797 
Q 434 3047 434 3316 
Q 434 3728 753 4026 
Q 1072 4325 1600 4325 
Q 2113 4325 2425 4047 
Q 2738 3769 2738 3413 
Q 2738 3175 2569 2928 
Q 2400 2681 1866 2347 
Q 2416 1922 2594 1678 
Q 2831 1359 2831 1006 
Q 2831 559 2490 242 
Q 2150 -75 1597 -75 
Q 994 -75 656 303 
Q 388 606 388 966 
Q 388 1247 577 1523 
Q 766 1800 1228 2134 
z
M 1719 2469 
Q 2094 2806 2194 3001 
Q 2294 3197 2294 3444 
Q 2294 3772 2109 3958 
Q 1925 4144 1606 4144 
Q 1288 4144 1088 3959 
Q 888 3775 888 3528 
Q 888 3366 970 3203 
Q 1053 3041 1206 2894 
L 1719 2469 
z
M 1375 2016 
Q 1116 1797 991 1539 
Q 866 1281 866 981 
Q 866 578 1086 336 
Q 1306 94 1647 94 
Q 1984 94 2187 284 
Q 2391 475 2391 747 
Q 2391 972 2272 1150 
Q 2050 1481 1375 2016 
z
" transform="scale(0.015625)"/>
       </defs>
       <use xlink:href="#TimesNewRomanPSMT-38"/>
      </g>
     </g>
    </g>
    <g id="xtick_9">
     <g id="line2d_9">
      <g>
       <use xlink:href="#m2abf7e11ed" x="224.975272" y="333.36" style="stroke: #000000; stroke-width: 0.8"/>
      </g>
     </g>
     <g id="text_9">
      <!-- 9 -->
      <g transform="translate(222.475272 347.30375)scale(0.1 -0.1)">
       <defs>
        <path id="TimesNewRomanPSMT-39" d="M 338 -88 
L 338 28 
Q 744 34 1094 217 
Q 1444 400 1770 856 
Q 2097 1313 2225 1859 
Q 1734 1544 1338 1544 
Q 891 1544 572 1889 
Q 253 2234 253 2806 
Q 253 3363 572 3797 
Q 956 4325 1575 4325 
Q 2097 4325 2469 3894 
Q 2925 3359 2925 2575 
Q 2925 1869 2578 1258 
Q 2231 647 1613 244 
Q 1109 -88 516 -88 
L 338 -88 
z
M 2275 2091 
Q 2331 2497 2331 2741 
Q 2331 3044 2228 3395 
Q 2125 3747 1936 3934 
Q 1747 4122 1506 4122 
Q 1228 4122 1018 3872 
Q 809 3622 809 3128 
Q 809 2469 1088 2097 
Q 1291 1828 1588 1828 
Q 1731 1828 1928 1897 
Q 2125 1966 2275 2091 
z
" transform="scale(0.015625)"/>
       </defs>
       <use xlink:href="#TimesNewRomanPSMT-39"/>
      </g>
     </g>
    </g>
    <g id="xtick_10">
     <g id="line2d_10">
      <g>
       <use xlink:href="#m2abf7e11ed" x="243.590785" y="333.36" style="stroke: #000000; stroke-width: 0.8"/>
      </g>
     </g>
     <g id="text_10">
      <!-- 10 -->
      <g transform="translate(238.590785 347.30375)scale(0.1 -0.1)">
       <defs>
        <path id="TimesNewRomanPSMT-30" d="M 231 2094 
Q 231 2819 450 3342 
Q 669 3866 1031 4122 
Q 1313 4325 1613 4325 
Q 2100 4325 2488 3828 
Q 2972 3213 2972 2159 
Q 2972 1422 2759 906 
Q 2547 391 2217 158 
Q 1888 -75 1581 -75 
Q 975 -75 572 641 
Q 231 1244 231 2094 
z
M 844 2016 
Q 844 1141 1059 588 
Q 1238 122 1591 122 
Q 1759 122 1940 273 
Q 2122 425 2216 781 
Q 2359 1319 2359 2297 
Q 2359 3022 2209 3506 
Q 2097 3866 1919 4016 
Q 1791 4119 1609 4119 
Q 1397 4119 1231 3928 
Q 1006 3669 925 3112 
Q 844 2556 844 2016 
z
" transform="scale(0.015625)"/>
       </defs>
       <use xlink:href="#TimesNewRomanPSMT-31"/>
       <use xlink:href="#TimesNewRomanPSMT-30" x="50"/>
      </g>
     </g>
    </g>
    <g id="xtick_11">
     <g id="line2d_11">
      <g>
       <use xlink:href="#m2abf7e11ed" x="262.206297" y="333.36" style="stroke: #000000; stroke-width: 0.8"/>
      </g>
     </g>
     <g id="text_11">
      <!-- 11 -->
      <g transform="translate(257.393797 347.30375)scale(0.1 -0.1)">
       <use xlink:href="#TimesNewRomanPSMT-31"/>
       <use xlink:href="#TimesNewRomanPSMT-31" x="46.25"/>
      </g>
     </g>
    </g>
    <g id="xtick_12">
     <g id="line2d_12">
      <g>
       <use xlink:href="#m2abf7e11ed" x="280.82181" y="333.36" style="stroke: #000000; stroke-width: 0.8"/>
      </g>
     </g>
     <g id="text_12">
      <!-- 12 -->
      <g transform="translate(275.82181 347.30375)scale(0.1 -0.1)">
       <use xlink:href="#TimesNewRomanPSMT-31"/>
       <use xlink:href="#TimesNewRomanPSMT-32" x="50"/>
      </g>
     </g>
    </g>
    <g id="xtick_13">
     <g id="line2d_13">
      <g>
       <use xlink:href="#m2abf7e11ed" x="299.437323" y="333.36" style="stroke: #000000; stroke-width: 0.8"/>
      </g>
     </g>
     <g id="text_13">
      <!-- 13 -->
      <g transform="translate(294.437323 347.30375)scale(0.1 -0.1)">
       <use xlink:href="#TimesNewRomanPSMT-31"/>
       <use xlink:href="#TimesNewRomanPSMT-33" x="50"/>
      </g>
     </g>
    </g>
    <g id="xtick_14">
     <g id="line2d_14">
      <g>
       <use xlink:href="#m2abf7e11ed" x="318.052836" y="333.36" style="stroke: #000000; stroke-width: 0.8"/>
      </g>
     </g>
     <g id="text_14">
      <!-- 14 -->
      <g transform="translate(313.052836 347.30375)scale(0.1 -0.1)">
       <use xlink:href="#TimesNewRomanPSMT-31"/>
       <use xlink:href="#TimesNewRomanPSMT-34" x="50"/>
      </g>
     </g>
    </g>
    <g id="xtick_15">
     <g id="line2d_15">
      <g>
       <use xlink:href="#m2abf7e11ed" x="336.668349" y="333.36" style="stroke: #000000; stroke-width: 0.8"/>
      </g>
     </g>
     <g id="text_15">
      <!-- 15 -->
      <g transform="translate(331.668349 347.30375)scale(0.1 -0.1)">
       <use xlink:href="#TimesNewRomanPSMT-31"/>
       <use xlink:href="#TimesNewRomanPSMT-35" x="50"/>
      </g>
     </g>
    </g>
    <g id="xtick_16">
     <g id="line2d_16">
      <g>
       <use xlink:href="#m2abf7e11ed" x="355.283862" y="333.36" style="stroke: #000000; stroke-width: 0.8"/>
      </g>
     </g>
     <g id="text_16">
      <!-- 16 -->
      <g transform="translate(350.283862 347.30375)scale(0.1 -0.1)">
       <use xlink:href="#TimesNewRomanPSMT-31"/>
       <use xlink:href="#TimesNewRomanPSMT-36" x="50"/>
      </g>
     </g>
    </g>
    <g id="xtick_17">
     <g id="line2d_17">
      <g>
       <use xlink:href="#m2abf7e11ed" x="373.899375" y="333.36" style="stroke: #000000; stroke-width: 0.8"/>
      </g>
     </g>
     <g id="text_17">
      <!-- 17 -->
      <g transform="translate(368.899375 347.30375)scale(0.1 -0.1)">
       <use xlink:href="#TimesNewRomanPSMT-31"/>
       <use xlink:href="#TimesNewRomanPSMT-37" x="50"/>
      </g>
     </g>
    </g>
    <g id="xtick_18">
     <g id="line2d_18">
      <g>
       <use xlink:href="#m2abf7e11ed" x="392.514888" y="333.36" style="stroke: #000000; stroke-width: 0.8"/>
      </g>
     </g>
     <g id="text_18">
      <!-- 18 -->
      <g transform="translate(387.514888 347.30375)scale(0.1 -0.1)">
       <use xlink:href="#TimesNewRomanPSMT-31"/>
       <use xlink:href="#TimesNewRomanPSMT-38" x="50"/>
      </g>
     </g>
    </g>
    <g id="xtick_19">
     <g id="line2d_19">
      <g>
       <use xlink:href="#m2abf7e11ed" x="411.130401" y="333.36" style="stroke: #000000; stroke-width: 0.8"/>
      </g>
     </g>
     <g id="text_19">
      <!-- 19 -->
      <g transform="translate(406.130401 347.30375)scale(0.1 -0.1)">
       <use xlink:href="#TimesNewRomanPSMT-31"/>
       <use xlink:href="#TimesNewRomanPSMT-39" x="50"/>
      </g>
     </g>
    </g>
    <g id="xtick_20">
     <g id="line2d_20">
      <g>
       <use xlink:href="#m2abf7e11ed" x="429.745914" y="333.36" style="stroke: #000000; stroke-width: 0.8"/>
      </g>
     </g>
     <g id="text_20">
      <!-- 20 -->
      <g transform="translate(424.745914 347.30375)scale(0.1 -0.1)">
       <use xlink:href="#TimesNewRomanPSMT-32"/>
       <use xlink:href="#TimesNewRomanPSMT-30" x="50"/>
      </g>
     </g>
    </g>
    <g id="xtick_21">
     <g id="line2d_21">
      <g>
       <use xlink:href="#m2abf7e11ed" x="448.361427" y="333.36" style="stroke: #000000; stroke-width: 0.8"/>
      </g>
     </g>
     <g id="text_21">
      <!-- 21 -->
      <g transform="translate(443.361427 347.30375)scale(0.1 -0.1)">
       <use xlink:href="#TimesNewRomanPSMT-32"/>
       <use xlink:href="#TimesNewRomanPSMT-31" x="50"/>
      </g>
     </g>
    </g>
    <g id="xtick_22">
     <g id="line2d_22">
      <g>
       <use xlink:href="#m2abf7e11ed" x="466.97694" y="333.36" style="stroke: #000000; stroke-width: 0.8"/>
      </g>
     </g>
     <g id="text_22">
      <!-- 22 -->
      <g transform="translate(461.97694 347.30375)scale(0.1 -0.1)">
       <use xlink:href="#TimesNewRomanPSMT-32"/>
       <use xlink:href="#TimesNewRomanPSMT-32" x="50"/>
      </g>
     </g>
    </g>
    <g id="xtick_23">
     <g id="line2d_23">
      <g>
       <use xlink:href="#m2abf7e11ed" x="485.592453" y="333.36" style="stroke: #000000; stroke-width: 0.8"/>
      </g>
     </g>
     <g id="text_23">
      <!-- 23 -->
      <g transform="translate(480.592453 347.30375)scale(0.1 -0.1)">
       <use xlink:href="#TimesNewRomanPSMT-32"/>
       <use xlink:href="#TimesNewRomanPSMT-33" x="50"/>
      </g>
     </g>
    </g>
    <g id="xtick_24">
     <g id="line2d_24">
      <g>
       <use xlink:href="#m2abf7e11ed" x="504.207965" y="333.36" style="stroke: #000000; stroke-width: 0.8"/>
      </g>
     </g>
     <g id="text_24">
      <!-- 24 -->
      <g transform="translate(499.207965 347.30375)scale(0.1 -0.1)">
       <use xlink:href="#TimesNewRomanPSMT-32"/>
       <use xlink:href="#TimesNewRomanPSMT-34" x="50"/>
      </g>
     </g>
    </g>
    <g id="xtick_25">
     <g id="line2d_25">
      <g>
       <use xlink:href="#m2abf7e11ed" x="522.823478" y="333.36" style="stroke: #000000; stroke-width: 0.8"/>
      </g>
     </g>
     <g id="text_25">
      <!-- 25 -->
      <g transform="translate(517.823478 347.30375)scale(0.1 -0.1)">
       <use xlink:href="#TimesNewRomanPSMT-32"/>
       <use xlink:href="#TimesNewRomanPSMT-35" x="50"/>
      </g>
     </g>
    </g>
    <g id="xtick_26">
     <g id="line2d_26">
      <g>
       <use xlink:href="#m2abf7e11ed" x="541.438991" y="333.36" style="stroke: #000000; stroke-width: 0.8"/>
      </g>
     </g>
     <g id="text_26">
      <!-- 26 -->
      <g transform="translate(536.438991 347.30375)scale(0.1 -0.1)">
       <use xlink:href="#TimesNewRomanPSMT-32"/>
       <use xlink:href="#TimesNewRomanPSMT-36" x="50"/>
      </g>
     </g>
    </g>
    <g id="xtick_27">
     <g id="line2d_27">
      <g>
       <use xlink:href="#m2abf7e11ed" x="560.054504" y="333.36" style="stroke: #000000; stroke-width: 0.8"/>
      </g>
     </g>
     <g id="text_27">
      <!-- 27 -->
      <g transform="translate(555.054504 347.30375)scale(0.1 -0.1)">
       <use xlink:href="#TimesNewRomanPSMT-32"/>
       <use xlink:href="#TimesNewRomanPSMT-37" x="50"/>
      </g>
     </g>
    </g>
    <g id="xtick_28">
     <g id="line2d_28">
      <g>
       <use xlink:href="#m2abf7e11ed" x="578.670017" y="333.36" style="stroke: #000000; stroke-width: 0.8"/>
      </g>
     </g>
     <g id="text_28">
      <!-- 28 -->
      <g transform="translate(573.670017 347.30375)scale(0.1 -0.1)">
       <use xlink:href="#TimesNewRomanPSMT-32"/>
       <use xlink:href="#TimesNewRomanPSMT-38" x="50"/>
      </g>
     </g>
    </g>
    <g id="xtick_29">
     <g id="line2d_29">
      <g>
       <use xlink:href="#m2abf7e11ed" x="597.28553" y="333.36" style="stroke: #000000; stroke-width: 0.8"/>
      </g>
     </g>
     <g id="text_29">
      <!-- 29 -->
      <g transform="translate(592.28553 347.30375)scale(0.1 -0.1)">
       <use xlink:href="#TimesNewRomanPSMT-32"/>
       <use xlink:href="#TimesNewRomanPSMT-39" x="50"/>
      </g>
     </g>
    </g>
    <g id="xtick_30">
     <g id="line2d_30">
      <g>
       <use xlink:href="#m2abf7e11ed" x="615.901043" y="333.36" style="stroke: #000000; stroke-width: 0.8"/>
      </g>
     </g>
     <g id="text_30">
      <!-- 30 -->
      <g transform="translate(610.901043 347.30375)scale(0.1 -0.1)">
       <use xlink:href="#TimesNewRomanPSMT-33"/>
       <use xlink:href="#TimesNewRomanPSMT-30" x="50"/>
      </g>
     </g>
    </g>
    <g id="xtick_31">
     <g id="line2d_31">
      <g>
       <use xlink:href="#m2abf7e11ed" x="634.516556" y="333.36" style="stroke: #000000; stroke-width: 0.8"/>
      </g>
     </g>
     <g id="text_31">
      <!-- 31 -->
      <g transform="translate(629.516556 347.30375)scale(0.1 -0.1)">
       <use xlink:href="#TimesNewRomanPSMT-33"/>
       <use xlink:href="#TimesNewRomanPSMT-31" x="50"/>
      </g>
     </g>
    </g>
    <g id="xtick_32">
     <g id="line2d_32">
      <g>
       <use xlink:href="#m2abf7e11ed" x="653.132069" y="333.36" style="stroke: #000000; stroke-width: 0.8"/>
      </g>
     </g>
     <g id="text_32">
      <!-- 32 -->
      <g transform="translate(648.132069 347.30375)scale(0.1 -0.1)">
       <use xlink:href="#TimesNewRomanPSMT-33"/>
       <use xlink:href="#TimesNewRomanPSMT-32" x="50"/>
      </g>
     </g>
    </g>
    <g id="xtick_33">
     <g id="line2d_33">
      <g>
       <use xlink:href="#m2abf7e11ed" x="671.747582" y="333.36" style="stroke: #000000; stroke-width: 0.8"/>
      </g>
     </g>
     <g id="text_33">
      <!-- 33 -->
      <g transform="translate(666.747582 347.30375)scale(0.1 -0.1)">
       <use xlink:href="#TimesNewRomanPSMT-33"/>
       <use xlink:href="#TimesNewRomanPSMT-33" x="50"/>
      </g>
     </g>
    </g>
    <g id="text_34">
     <!-- Variables -->
     <g transform="translate(351.576563 361.775312)scale(0.12 -0.12)">
      <defs>
       <path id="TimesNewRomanPSMT-56" d="M 4544 4238 
L 4544 4122 
Q 4319 4081 4203 3978 
Q 4038 3825 3909 3509 
L 2431 -97 
L 2316 -97 
L 728 3556 
Q 606 3838 556 3900 
Q 478 3997 364 4051 
Q 250 4106 56 4122 
L 56 4238 
L 1788 4238 
L 1788 4122 
Q 1494 4094 1406 4022 
Q 1319 3950 1319 3838 
Q 1319 3681 1463 3350 
L 2541 866 
L 3541 3319 
Q 3688 3681 3688 3822 
Q 3688 3913 3597 3995 
Q 3506 4078 3291 4113 
Q 3275 4116 3238 4122 
L 3238 4238 
L 4544 4238 
z
" transform="scale(0.015625)"/>
       <path id="TimesNewRomanPSMT-61" d="M 1822 413 
Q 1381 72 1269 19 
Q 1100 -59 909 -59 
Q 613 -59 420 144 
Q 228 347 228 678 
Q 228 888 322 1041 
Q 450 1253 767 1440 
Q 1084 1628 1822 1897 
L 1822 2009 
Q 1822 2438 1686 2597 
Q 1550 2756 1291 2756 
Q 1094 2756 978 2650 
Q 859 2544 859 2406 
L 866 2225 
Q 866 2081 792 2003 
Q 719 1925 600 1925 
Q 484 1925 411 2006 
Q 338 2088 338 2228 
Q 338 2497 613 2722 
Q 888 2947 1384 2947 
Q 1766 2947 2009 2819 
Q 2194 2722 2281 2516 
Q 2338 2381 2338 1966 
L 2338 994 
Q 2338 584 2353 492 
Q 2369 400 2405 369 
Q 2441 338 2488 338 
Q 2538 338 2575 359 
Q 2641 400 2828 588 
L 2828 413 
Q 2478 -56 2159 -56 
Q 2006 -56 1915 50 
Q 1825 156 1822 413 
z
M 1822 616 
L 1822 1706 
Q 1350 1519 1213 1441 
Q 966 1303 859 1153 
Q 753 1003 753 825 
Q 753 600 887 451 
Q 1022 303 1197 303 
Q 1434 303 1822 616 
z
" transform="scale(0.015625)"/>
       <path id="TimesNewRomanPSMT-72" d="M 1038 2947 
L 1038 2303 
Q 1397 2947 1775 2947 
Q 1947 2947 2059 2842 
Q 2172 2738 2172 2600 
Q 2172 2478 2090 2393 
Q 2009 2309 1897 2309 
Q 1788 2309 1652 2417 
Q 1516 2525 1450 2525 
Q 1394 2525 1328 2463 
Q 1188 2334 1038 2041 
L 1038 669 
Q 1038 431 1097 309 
Q 1138 225 1241 169 
Q 1344 113 1538 113 
L 1538 0 
L 72 0 
L 72 113 
Q 291 113 397 181 
Q 475 231 506 341 
Q 522 394 522 644 
L 522 1753 
Q 522 2253 501 2348 
Q 481 2444 426 2487 
Q 372 2531 291 2531 
Q 194 2531 72 2484 
L 41 2597 
L 906 2947 
L 1038 2947 
z
" transform="scale(0.015625)"/>
       <path id="TimesNewRomanPSMT-69" d="M 928 4444 
Q 1059 4444 1151 4351 
Q 1244 4259 1244 4128 
Q 1244 3997 1151 3903 
Q 1059 3809 928 3809 
Q 797 3809 703 3903 
Q 609 3997 609 4128 
Q 609 4259 701 4351 
Q 794 4444 928 4444 
z
M 1188 2947 
L 1188 647 
Q 1188 378 1227 289 
Q 1266 200 1342 156 
Q 1419 113 1622 113 
L 1622 0 
L 231 0 
L 231 113 
Q 441 113 512 153 
Q 584 194 626 287 
Q 669 381 669 647 
L 669 1750 
Q 669 2216 641 2353 
Q 619 2453 572 2492 
Q 525 2531 444 2531 
Q 356 2531 231 2484 
L 188 2597 
L 1050 2947 
L 1188 2947 
z
" transform="scale(0.015625)"/>
       <path id="TimesNewRomanPSMT-62" d="M 984 2369 
Q 1400 2947 1881 2947 
Q 2322 2947 2650 2570 
Q 2978 2194 2978 1541 
Q 2978 778 2472 313 
Q 2038 -88 1503 -88 
Q 1253 -88 995 3 
Q 738 94 469 275 
L 469 3241 
Q 469 3728 445 3840 
Q 422 3953 372 3993 
Q 322 4034 247 4034 
Q 159 4034 28 3984 
L -16 4094 
L 844 4444 
L 984 4444 
L 984 2369 
z
M 984 2169 
L 984 456 
Q 1144 300 1314 220 
Q 1484 141 1663 141 
Q 1947 141 2192 453 
Q 2438 766 2438 1363 
Q 2438 1913 2192 2208 
Q 1947 2503 1634 2503 
Q 1469 2503 1303 2419 
Q 1178 2356 984 2169 
z
" transform="scale(0.015625)"/>
       <path id="TimesNewRomanPSMT-6c" d="M 1184 4444 
L 1184 647 
Q 1184 378 1223 290 
Q 1263 203 1344 158 
Q 1425 113 1647 113 
L 1647 0 
L 244 0 
L 244 113 
Q 441 113 512 153 
Q 584 194 625 287 
Q 666 381 666 647 
L 666 3247 
Q 666 3731 644 3842 
Q 622 3953 573 3993 
Q 525 4034 450 4034 
Q 369 4034 244 3984 
L 191 4094 
L 1044 4444 
L 1184 4444 
z
" transform="scale(0.015625)"/>
       <path id="TimesNewRomanPSMT-65" d="M 681 1784 
Q 678 1147 991 784 
Q 1303 422 1725 422 
Q 2006 422 2214 576 
Q 2422 731 2563 1106 
L 2659 1044 
Q 2594 616 2278 264 
Q 1963 -88 1488 -88 
Q 972 -88 605 314 
Q 238 716 238 1394 
Q 238 2128 614 2539 
Q 991 2950 1559 2950 
Q 2041 2950 2350 2633 
Q 2659 2316 2659 1784 
L 681 1784 
z
M 681 1966 
L 2006 1966 
Q 1991 2241 1941 2353 
Q 1863 2528 1708 2628 
Q 1553 2728 1384 2728 
Q 1125 2728 920 2526 
Q 716 2325 681 1966 
z
" transform="scale(0.015625)"/>
       <path id="TimesNewRomanPSMT-73" d="M 2050 2947 
L 2050 1972 
L 1947 1972 
Q 1828 2431 1642 2597 
Q 1456 2763 1169 2763 
Q 950 2763 815 2647 
Q 681 2531 681 2391 
Q 681 2216 781 2091 
Q 878 1963 1175 1819 
L 1631 1597 
Q 2266 1288 2266 781 
Q 2266 391 1970 151 
Q 1675 -88 1309 -88 
Q 1047 -88 709 6 
Q 606 38 541 38 
Q 469 38 428 -44 
L 325 -44 
L 325 978 
L 428 978 
Q 516 541 762 319 
Q 1009 97 1316 97 
Q 1531 97 1667 223 
Q 1803 350 1803 528 
Q 1803 744 1651 891 
Q 1500 1038 1047 1263 
Q 594 1488 453 1669 
Q 313 1847 313 2119 
Q 313 2472 555 2709 
Q 797 2947 1181 2947 
Q 1350 2947 1591 2875 
Q 1750 2828 1803 2828 
Q 1853 2828 1881 2850 
Q 1909 2872 1947 2947 
L 2050 2947 
z
" transform="scale(0.015625)"/>
      </defs>
      <use xlink:href="#TimesNewRomanPSMT-56"/>
      <use xlink:href="#TimesNewRomanPSMT-61" x="61.091797"/>
      <use xlink:href="#TimesNewRomanPSMT-72" x="105.476562"/>
      <use xlink:href="#TimesNewRomanPSMT-69" x="138.777344"/>
      <use xlink:href="#TimesNewRomanPSMT-61" x="166.560547"/>
      <use xlink:href="#TimesNewRomanPSMT-62" x="210.945312"/>
      <use xlink:href="#TimesNewRomanPSMT-6c" x="260.945312"/>
      <use xlink:href="#TimesNewRomanPSMT-65" x="288.728516"/>
      <use xlink:href="#TimesNewRomanPSMT-73" x="333.113281"/>
     </g>
    </g>
   </g>
   <g id="matplotlib.axis_2">
    <g id="ytick_1">
     <g id="line2d_34">
      <defs>
       <path id="m94836f97e6" d="M 0 0 
L -3.5 0 
" style="stroke: #000000; stroke-width: 0.8"/>
      </defs>
      <g>
       <use xlink:href="#m94836f97e6" x="39.099375" y="333.36" style="stroke: #000000; stroke-width: 0.8"/>
      </g>
     </g>
     <g id="text_35">
      <!-- 0 -->
      <g transform="translate(27.099375 336.831875)scale(0.1 -0.1)">
       <use xlink:href="#TimesNewRomanPSMT-30"/>
      </g>
     </g>
    </g>
    <g id="ytick_2">
     <g id="line2d_35">
      <g>
       <use xlink:href="#m94836f97e6" x="39.099375" y="262.762597" style="stroke: #000000; stroke-width: 0.8"/>
      </g>
     </g>
     <g id="text_36">
      <!-- 5 -->
      <g transform="translate(27.099375 266.234472)scale(0.1 -0.1)">
       <use xlink:href="#TimesNewRomanPSMT-35"/>
      </g>
     </g>
    </g>
    <g id="ytick_3">
     <g id="line2d_36">
      <g>
       <use xlink:href="#m94836f97e6" x="39.099375" y="192.165195" style="stroke: #000000; stroke-width: 0.8"/>
      </g>
     </g>
     <g id="text_37">
      <!-- 10 -->
      <g transform="translate(22.099375 195.63707)scale(0.1 -0.1)">
       <use xlink:href="#TimesNewRomanPSMT-31"/>
       <use xlink:href="#TimesNewRomanPSMT-30" x="50"/>
      </g>
     </g>
    </g>
    <g id="ytick_4">
     <g id="line2d_37">
      <g>
       <use xlink:href="#m94836f97e6" x="39.099375" y="121.567792" style="stroke: #000000; stroke-width: 0.8"/>
      </g>
     </g>
     <g id="text_38">
      <!-- 15 -->
      <g transform="translate(22.099375 125.039667)scale(0.1 -0.1)">
       <use xlink:href="#TimesNewRomanPSMT-31"/>
       <use xlink:href="#TimesNewRomanPSMT-35" x="50"/>
      </g>
     </g>
    </g>
    <g id="ytick_5">
     <g id="line2d_38">
      <g>
       <use xlink:href="#m94836f97e6" x="39.099375" y="50.97039" style="stroke: #000000; stroke-width: 0.8"/>
      </g>
     </g>
     <g id="text_39">
      <!-- 20 -->
      <g transform="translate(22.099375 54.442265)scale(0.1 -0.1)">
       <use xlink:href="#TimesNewRomanPSMT-32"/>
       <use xlink:href="#TimesNewRomanPSMT-30" x="50"/>
      </g>
     </g>
    </g>
    <g id="text_40">
     <!-- Values -->
     <g transform="translate(15.5325 186.274687)rotate(-90)scale(0.12 -0.12)">
      <defs>
       <path id="TimesNewRomanPSMT-75" d="M 2709 2863 
L 2709 1128 
Q 2709 631 2732 520 
Q 2756 409 2807 365 
Q 2859 322 2928 322 
Q 3025 322 3147 375 
L 3191 266 
L 2334 -88 
L 2194 -88 
L 2194 519 
Q 1825 119 1631 15 
Q 1438 -88 1222 -88 
Q 981 -88 804 51 
Q 628 191 559 409 
Q 491 628 491 1028 
L 491 2306 
Q 491 2509 447 2587 
Q 403 2666 317 2708 
Q 231 2750 6 2747 
L 6 2863 
L 1009 2863 
L 1009 947 
Q 1009 547 1148 422 
Q 1288 297 1484 297 
Q 1619 297 1789 381 
Q 1959 466 2194 703 
L 2194 2325 
Q 2194 2569 2105 2655 
Q 2016 2741 1734 2747 
L 1734 2863 
L 2709 2863 
z
" transform="scale(0.015625)"/>
      </defs>
      <use xlink:href="#TimesNewRomanPSMT-56"/>
      <use xlink:href="#TimesNewRomanPSMT-61" x="61.091797"/>
      <use xlink:href="#TimesNewRomanPSMT-6c" x="105.476562"/>
      <use xlink:href="#TimesNewRomanPSMT-75" x="133.259766"/>
      <use xlink:href="#TimesNewRomanPSMT-65" x="183.259766"/>
      <use xlink:href="#TimesNewRomanPSMT-73" x="227.644531"/>
     </g>
    </g>
   </g>
   <g id="patch_135">
    <path d="M 39.099375 333.36 
L 39.099375 7.2 
" style="fill: none; stroke: #000000; stroke-width: 0.8; stroke-linejoin: miter; stroke-linecap: square"/>
   </g>
   <g id="patch_136">
    <path d="M 708.699375 333.36 
L 708.699375 7.2 
" style="fill: none; stroke: #000000; stroke-width: 0.8; stroke-linejoin: miter; stroke-linecap: square"/>
   </g>
   <g id="patch_137">
    <path d="M 39.099375 333.36 
L 708.699375 333.36 
" style="fill: none; stroke: #000000; stroke-width: 0.8; stroke-linejoin: miter; stroke-linecap: square"/>
   </g>
   <g id="patch_138">
    <path d="M 39.099375 7.2 
L 708.699375 7.2 
" style="fill: none; stroke: #000000; stroke-width: 0.8; stroke-linejoin: miter; stroke-linecap: square"/>
   </g>
   <g id="legend_1">
    <g id="patch_139">
     <path d="M 528.211375 136.98825 
L 700.161375 136.98825 
Q 702.161375 136.98825 702.161375 134.98825 
L 702.161375 79.432 
Q 702.161375 77.432 700.161375 77.432 
L 528.211375 77.432 
Q 526.211375 77.432 526.211375 79.432 
L 526.211375 134.98825 
Q 526.211375 136.98825 528.211375 136.98825 
z
" style="fill: #ffffff; opacity: 0.8; stroke: #cccccc; stroke-linejoin: miter"/>
    </g>
    <g id="patch_140">
     <path d="M 530.211375 88.432 
L 550.211375 88.432 
L 550.211375 81.432 
L 530.211375 81.432 
z
" style="fill: #2878b5"/>
    </g>
    <g id="text_41">
     <!-- successful reverse(no protection) -->
     <g transform="translate(558.211375 88.432)scale(0.1 -0.1)">
      <defs>
       <path id="TimesNewRomanPSMT-63" d="M 2631 1088 
Q 2516 522 2178 217 
Q 1841 -88 1431 -88 
Q 944 -88 581 321 
Q 219 731 219 1428 
Q 219 2103 620 2525 
Q 1022 2947 1584 2947 
Q 2006 2947 2278 2723 
Q 2550 2500 2550 2259 
Q 2550 2141 2473 2067 
Q 2397 1994 2259 1994 
Q 2075 1994 1981 2113 
Q 1928 2178 1911 2362 
Q 1894 2547 1784 2644 
Q 1675 2738 1481 2738 
Q 1169 2738 978 2506 
Q 725 2200 725 1697 
Q 725 1184 976 792 
Q 1228 400 1656 400 
Q 1963 400 2206 609 
Q 2378 753 2541 1131 
L 2631 1088 
z
" transform="scale(0.015625)"/>
       <path id="TimesNewRomanPSMT-66" d="M 1319 2638 
L 1319 756 
Q 1319 356 1406 250 
Q 1522 113 1716 113 
L 1975 113 
L 1975 0 
L 266 0 
L 266 113 
L 394 113 
Q 519 113 622 175 
Q 725 238 764 344 
Q 803 450 803 756 
L 803 2638 
L 247 2638 
L 247 2863 
L 803 2863 
L 803 3050 
Q 803 3478 940 3775 
Q 1078 4072 1361 4255 
Q 1644 4438 1997 4438 
Q 2325 4438 2600 4225 
Q 2781 4084 2781 3909 
Q 2781 3816 2700 3733 
Q 2619 3650 2525 3650 
Q 2453 3650 2373 3701 
Q 2294 3753 2178 3923 
Q 2063 4094 1966 4153 
Q 1869 4213 1750 4213 
Q 1606 4213 1506 4136 
Q 1406 4059 1362 3898 
Q 1319 3738 1319 3069 
L 1319 2863 
L 2056 2863 
L 2056 2638 
L 1319 2638 
z
" transform="scale(0.015625)"/>
       <path id="TimesNewRomanPSMT-20" transform="scale(0.015625)"/>
       <path id="TimesNewRomanPSMT-76" d="M 53 2863 
L 1400 2863 
L 1400 2747 
L 1313 2747 
Q 1191 2747 1127 2687 
Q 1063 2628 1063 2528 
Q 1063 2419 1128 2269 
L 1794 688 
L 2463 2328 
Q 2534 2503 2534 2594 
Q 2534 2638 2509 2666 
Q 2475 2713 2422 2730 
Q 2369 2747 2206 2747 
L 2206 2863 
L 3141 2863 
L 3141 2747 
Q 2978 2734 2916 2681 
Q 2806 2588 2719 2369 
L 1703 -88 
L 1575 -88 
L 553 2328 
Q 484 2497 421 2570 
Q 359 2644 263 2694 
Q 209 2722 53 2747 
L 53 2863 
z
" transform="scale(0.015625)"/>
       <path id="TimesNewRomanPSMT-28" d="M 1988 -1253 
L 1988 -1369 
Q 1516 -1131 1200 -813 
Q 750 -359 506 256 
Q 263 872 263 1534 
Q 263 2503 741 3301 
Q 1219 4100 1988 4444 
L 1988 4313 
Q 1603 4100 1356 3731 
Q 1109 3363 987 2797 
Q 866 2231 866 1616 
Q 866 947 969 400 
Q 1050 -31 1165 -292 
Q 1281 -553 1476 -793 
Q 1672 -1034 1988 -1253 
z
" transform="scale(0.015625)"/>
       <path id="TimesNewRomanPSMT-6e" d="M 1034 2341 
Q 1538 2947 1994 2947 
Q 2228 2947 2397 2830 
Q 2566 2713 2666 2444 
Q 2734 2256 2734 1869 
L 2734 647 
Q 2734 375 2778 278 
Q 2813 200 2889 156 
Q 2966 113 3172 113 
L 3172 0 
L 1756 0 
L 1756 113 
L 1816 113 
Q 2016 113 2095 173 
Q 2175 234 2206 353 
Q 2219 400 2219 647 
L 2219 1819 
Q 2219 2209 2117 2386 
Q 2016 2563 1775 2563 
Q 1403 2563 1034 2156 
L 1034 647 
Q 1034 356 1069 288 
Q 1113 197 1189 155 
Q 1266 113 1500 113 
L 1500 0 
L 84 0 
L 84 113 
L 147 113 
Q 366 113 442 223 
Q 519 334 519 647 
L 519 1709 
Q 519 2225 495 2337 
Q 472 2450 423 2490 
Q 375 2531 294 2531 
Q 206 2531 84 2484 
L 38 2597 
L 900 2947 
L 1034 2947 
L 1034 2341 
z
" transform="scale(0.015625)"/>
       <path id="TimesNewRomanPSMT-6f" d="M 1600 2947 
Q 2250 2947 2644 2453 
Q 2978 2031 2978 1484 
Q 2978 1100 2793 706 
Q 2609 313 2286 112 
Q 1963 -88 1566 -88 
Q 919 -88 538 428 
Q 216 863 216 1403 
Q 216 1797 411 2186 
Q 606 2575 925 2761 
Q 1244 2947 1600 2947 
z
M 1503 2744 
Q 1338 2744 1170 2645 
Q 1003 2547 900 2300 
Q 797 2053 797 1666 
Q 797 1041 1045 587 
Q 1294 134 1700 134 
Q 2003 134 2200 384 
Q 2397 634 2397 1244 
Q 2397 2006 2069 2444 
Q 1847 2744 1503 2744 
z
" transform="scale(0.015625)"/>
       <path id="TimesNewRomanPSMT-70" d="M -6 2578 
L 875 2934 
L 994 2934 
L 994 2266 
Q 1216 2644 1439 2795 
Q 1663 2947 1909 2947 
Q 2341 2947 2628 2609 
Q 2981 2197 2981 1534 
Q 2981 794 2556 309 
Q 2206 -88 1675 -88 
Q 1444 -88 1275 -22 
Q 1150 25 994 166 
L 994 -706 
Q 994 -1000 1030 -1079 
Q 1066 -1159 1155 -1206 
Q 1244 -1253 1478 -1253 
L 1478 -1369 
L -22 -1369 
L -22 -1253 
L 56 -1253 
Q 228 -1256 350 -1188 
Q 409 -1153 442 -1076 
Q 475 -1000 475 -688 
L 475 2019 
Q 475 2297 450 2372 
Q 425 2447 370 2484 
Q 316 2522 222 2522 
Q 147 2522 31 2478 
L -6 2578 
z
M 994 2081 
L 994 1013 
Q 994 666 1022 556 
Q 1066 375 1236 237 
Q 1406 100 1666 100 
Q 1978 100 2172 344 
Q 2425 663 2425 1241 
Q 2425 1897 2138 2250 
Q 1938 2494 1663 2494 
Q 1513 2494 1366 2419 
Q 1253 2363 994 2081 
z
" transform="scale(0.015625)"/>
       <path id="TimesNewRomanPSMT-74" d="M 1031 3803 
L 1031 2863 
L 1700 2863 
L 1700 2644 
L 1031 2644 
L 1031 788 
Q 1031 509 1111 412 
Q 1191 316 1316 316 
Q 1419 316 1516 380 
Q 1613 444 1666 569 
L 1788 569 
Q 1678 263 1478 108 
Q 1278 -47 1066 -47 
Q 922 -47 784 33 
Q 647 113 581 261 
Q 516 409 516 719 
L 516 2644 
L 63 2644 
L 63 2747 
Q 234 2816 414 2980 
Q 594 3144 734 3369 
Q 806 3488 934 3803 
L 1031 3803 
z
" transform="scale(0.015625)"/>
       <path id="TimesNewRomanPSMT-29" d="M 144 4313 
L 144 4444 
Q 619 4209 934 3891 
Q 1381 3434 1625 2820 
Q 1869 2206 1869 1541 
Q 1869 572 1392 -226 
Q 916 -1025 144 -1369 
L 144 -1253 
Q 528 -1038 776 -670 
Q 1025 -303 1145 264 
Q 1266 831 1266 1447 
Q 1266 2113 1163 2663 
Q 1084 3094 967 3353 
Q 850 3613 656 3853 
Q 463 4094 144 4313 
z
" transform="scale(0.015625)"/>
      </defs>
      <use xlink:href="#TimesNewRomanPSMT-73"/>
      <use xlink:href="#TimesNewRomanPSMT-75" x="38.916016"/>
      <use xlink:href="#TimesNewRomanPSMT-63" x="88.916016"/>
      <use xlink:href="#TimesNewRomanPSMT-63" x="133.300781"/>
      <use xlink:href="#TimesNewRomanPSMT-65" x="177.685547"/>
      <use xlink:href="#TimesNewRomanPSMT-73" x="222.070312"/>
      <use xlink:href="#TimesNewRomanPSMT-73" x="260.986328"/>
      <use xlink:href="#TimesNewRomanPSMT-66" x="299.902344"/>
      <use xlink:href="#TimesNewRomanPSMT-75" x="333.203125"/>
      <use xlink:href="#TimesNewRomanPSMT-6c" x="383.203125"/>
      <use xlink:href="#TimesNewRomanPSMT-20" x="410.986328"/>
      <use xlink:href="#TimesNewRomanPSMT-72" x="435.986328"/>
      <use xlink:href="#TimesNewRomanPSMT-65" x="469.287109"/>
      <use xlink:href="#TimesNewRomanPSMT-76" x="513.671875"/>
      <use xlink:href="#TimesNewRomanPSMT-65" x="563.671875"/>
      <use xlink:href="#TimesNewRomanPSMT-72" x="608.056641"/>
      <use xlink:href="#TimesNewRomanPSMT-73" x="641.357422"/>
      <use xlink:href="#TimesNewRomanPSMT-65" x="680.273438"/>
      <use xlink:href="#TimesNewRomanPSMT-28" x="724.658203"/>
      <use xlink:href="#TimesNewRomanPSMT-6e" x="757.958984"/>
      <use xlink:href="#TimesNewRomanPSMT-6f" x="807.958984"/>
      <use xlink:href="#TimesNewRomanPSMT-20" x="857.958984"/>
      <use xlink:href="#TimesNewRomanPSMT-70" x="882.958984"/>
      <use xlink:href="#TimesNewRomanPSMT-72" x="932.958984"/>
      <use xlink:href="#TimesNewRomanPSMT-6f" x="966.259766"/>
      <use xlink:href="#TimesNewRomanPSMT-74" x="1016.259766"/>
      <use xlink:href="#TimesNewRomanPSMT-65" x="1044.042969"/>
      <use xlink:href="#TimesNewRomanPSMT-63" x="1088.427734"/>
      <use xlink:href="#TimesNewRomanPSMT-74" x="1132.8125"/>
      <use xlink:href="#TimesNewRomanPSMT-69" x="1160.595703"/>
      <use xlink:href="#TimesNewRomanPSMT-6f" x="1188.378906"/>
      <use xlink:href="#TimesNewRomanPSMT-6e" x="1238.378906"/>
      <use xlink:href="#TimesNewRomanPSMT-29" x="1288.378906"/>
     </g>
    </g>
    <g id="patch_141">
     <path d="M 530.211375 102.571062 
L 550.211375 102.571062 
L 550.211375 95.571062 
L 530.211375 95.571062 
z
" style="fill: #c82423"/>
    </g>
    <g id="text_42">
     <!-- invaild reverse(no protection) -->
     <g transform="translate(558.211375 102.571062)scale(0.1 -0.1)">
      <defs>
       <path id="TimesNewRomanPSMT-64" d="M 2222 322 
Q 2013 103 1813 7 
Q 1613 -88 1381 -88 
Q 913 -88 563 304 
Q 213 697 213 1313 
Q 213 1928 600 2439 
Q 988 2950 1597 2950 
Q 1975 2950 2222 2709 
L 2222 3238 
Q 2222 3728 2198 3840 
Q 2175 3953 2125 3993 
Q 2075 4034 2000 4034 
Q 1919 4034 1784 3984 
L 1744 4094 
L 2597 4444 
L 2738 4444 
L 2738 1134 
Q 2738 631 2761 520 
Q 2784 409 2836 365 
Q 2888 322 2956 322 
Q 3041 322 3181 375 
L 3216 266 
L 2366 -88 
L 2222 -88 
L 2222 322 
z
M 2222 541 
L 2222 2016 
Q 2203 2228 2109 2403 
Q 2016 2578 1861 2667 
Q 1706 2756 1559 2756 
Q 1284 2756 1069 2509 
Q 784 2184 784 1559 
Q 784 928 1059 592 
Q 1334 256 1672 256 
Q 1956 256 2222 541 
z
" transform="scale(0.015625)"/>
      </defs>
      <use xlink:href="#TimesNewRomanPSMT-69"/>
      <use xlink:href="#TimesNewRomanPSMT-6e" x="27.783203"/>
      <use xlink:href="#TimesNewRomanPSMT-76" x="77.783203"/>
      <use xlink:href="#TimesNewRomanPSMT-61" x="127.783203"/>
      <use xlink:href="#TimesNewRomanPSMT-69" x="172.167969"/>
      <use xlink:href="#TimesNewRomanPSMT-6c" x="199.951172"/>
      <use xlink:href="#TimesNewRomanPSMT-64" x="227.734375"/>
      <use xlink:href="#TimesNewRomanPSMT-20" x="277.734375"/>
      <use xlink:href="#TimesNewRomanPSMT-72" x="302.734375"/>
      <use xlink:href="#TimesNewRomanPSMT-65" x="336.035156"/>
      <use xlink:href="#TimesNewRomanPSMT-76" x="380.419922"/>
      <use xlink:href="#TimesNewRomanPSMT-65" x="430.419922"/>
      <use xlink:href="#TimesNewRomanPSMT-72" x="474.804688"/>
      <use xlink:href="#TimesNewRomanPSMT-73" x="508.105469"/>
      <use xlink:href="#TimesNewRomanPSMT-65" x="547.021484"/>
      <use xlink:href="#TimesNewRomanPSMT-28" x="591.40625"/>
      <use xlink:href="#TimesNewRomanPSMT-6e" x="624.707031"/>
      <use xlink:href="#TimesNewRomanPSMT-6f" x="674.707031"/>
      <use xlink:href="#TimesNewRomanPSMT-20" x="724.707031"/>
      <use xlink:href="#TimesNewRomanPSMT-70" x="749.707031"/>
      <use xlink:href="#TimesNewRomanPSMT-72" x="799.707031"/>
      <use xlink:href="#TimesNewRomanPSMT-6f" x="833.007812"/>
      <use xlink:href="#TimesNewRomanPSMT-74" x="883.007812"/>
      <use xlink:href="#TimesNewRomanPSMT-65" x="910.791016"/>
      <use xlink:href="#TimesNewRomanPSMT-63" x="955.175781"/>
      <use xlink:href="#TimesNewRomanPSMT-74" x="999.560547"/>
      <use xlink:href="#TimesNewRomanPSMT-69" x="1027.34375"/>
      <use xlink:href="#TimesNewRomanPSMT-6f" x="1055.126953"/>
      <use xlink:href="#TimesNewRomanPSMT-6e" x="1105.126953"/>
      <use xlink:href="#TimesNewRomanPSMT-29" x="1155.126953"/>
     </g>
    </g>
    <g id="patch_142">
     <path d="M 530.211375 116.710125 
L 550.211375 116.710125 
L 550.211375 109.710125 
L 530.211375 109.710125 
z
" style="fill: #9ac9db"/>
    </g>
    <g id="text_43">
     <!-- successful reverse(with protection) -->
     <g transform="translate(558.211375 116.710125)scale(0.1 -0.1)">
      <defs>
       <path id="TimesNewRomanPSMT-77" d="M 41 2863 
L 1241 2863 
L 1241 2747 
Q 1075 2734 1023 2687 
Q 972 2641 972 2553 
Q 972 2456 1025 2319 
L 1638 672 
L 2253 2013 
L 2091 2434 
Q 2016 2622 1894 2694 
Q 1825 2738 1638 2747 
L 1638 2863 
L 3000 2863 
L 3000 2747 
Q 2775 2738 2681 2666 
Q 2619 2616 2619 2506 
Q 2619 2444 2644 2378 
L 3294 734 
L 3897 2319 
Q 3959 2488 3959 2588 
Q 3959 2647 3898 2694 
Q 3838 2741 3659 2747 
L 3659 2863 
L 4563 2863 
L 4563 2747 
Q 4291 2706 4163 2378 
L 3206 -88 
L 3078 -88 
L 2363 1741 
L 1528 -88 
L 1413 -88 
L 494 2319 
Q 403 2547 315 2626 
Q 228 2706 41 2747 
L 41 2863 
z
" transform="scale(0.015625)"/>
       <path id="TimesNewRomanPSMT-68" d="M 1041 4444 
L 1041 2350 
Q 1388 2731 1591 2839 
Q 1794 2947 1997 2947 
Q 2241 2947 2416 2812 
Q 2591 2678 2675 2391 
Q 2734 2191 2734 1659 
L 2734 647 
Q 2734 375 2778 275 
Q 2809 200 2884 156 
Q 2959 113 3159 113 
L 3159 0 
L 1753 0 
L 1753 113 
L 1819 113 
Q 2019 113 2097 173 
Q 2175 234 2206 353 
Q 2216 403 2216 647 
L 2216 1659 
Q 2216 2128 2167 2275 
Q 2119 2422 2012 2495 
Q 1906 2569 1756 2569 
Q 1603 2569 1437 2487 
Q 1272 2406 1041 2159 
L 1041 647 
Q 1041 353 1073 281 
Q 1106 209 1195 161 
Q 1284 113 1503 113 
L 1503 0 
L 84 0 
L 84 113 
Q 275 113 384 172 
Q 447 203 484 290 
Q 522 378 522 647 
L 522 3238 
Q 522 3728 498 3840 
Q 475 3953 426 3993 
Q 378 4034 297 4034 
Q 231 4034 84 3984 
L 41 4094 
L 897 4444 
L 1041 4444 
z
" transform="scale(0.015625)"/>
      </defs>
      <use xlink:href="#TimesNewRomanPSMT-73"/>
      <use xlink:href="#TimesNewRomanPSMT-75" x="38.916016"/>
      <use xlink:href="#TimesNewRomanPSMT-63" x="88.916016"/>
      <use xlink:href="#TimesNewRomanPSMT-63" x="133.300781"/>
      <use xlink:href="#TimesNewRomanPSMT-65" x="177.685547"/>
      <use xlink:href="#TimesNewRomanPSMT-73" x="222.070312"/>
      <use xlink:href="#TimesNewRomanPSMT-73" x="260.986328"/>
      <use xlink:href="#TimesNewRomanPSMT-66" x="299.902344"/>
      <use xlink:href="#TimesNewRomanPSMT-75" x="333.203125"/>
      <use xlink:href="#TimesNewRomanPSMT-6c" x="383.203125"/>
      <use xlink:href="#TimesNewRomanPSMT-20" x="410.986328"/>
      <use xlink:href="#TimesNewRomanPSMT-72" x="435.986328"/>
      <use xlink:href="#TimesNewRomanPSMT-65" x="469.287109"/>
      <use xlink:href="#TimesNewRomanPSMT-76" x="513.671875"/>
      <use xlink:href="#TimesNewRomanPSMT-65" x="563.671875"/>
      <use xlink:href="#TimesNewRomanPSMT-72" x="608.056641"/>
      <use xlink:href="#TimesNewRomanPSMT-73" x="641.357422"/>
      <use xlink:href="#TimesNewRomanPSMT-65" x="680.273438"/>
      <use xlink:href="#TimesNewRomanPSMT-28" x="724.658203"/>
      <use xlink:href="#TimesNewRomanPSMT-77" x="757.958984"/>
      <use xlink:href="#TimesNewRomanPSMT-69" x="830.175781"/>
      <use xlink:href="#TimesNewRomanPSMT-74" x="857.958984"/>
      <use xlink:href="#TimesNewRomanPSMT-68" x="885.742188"/>
      <use xlink:href="#TimesNewRomanPSMT-20" x="935.742188"/>
      <use xlink:href="#TimesNewRomanPSMT-70" x="960.742188"/>
      <use xlink:href="#TimesNewRomanPSMT-72" x="1010.742188"/>
      <use xlink:href="#TimesNewRomanPSMT-6f" x="1044.042969"/>
      <use xlink:href="#TimesNewRomanPSMT-74" x="1094.042969"/>
      <use xlink:href="#TimesNewRomanPSMT-65" x="1121.826172"/>
      <use xlink:href="#TimesNewRomanPSMT-63" x="1166.210938"/>
      <use xlink:href="#TimesNewRomanPSMT-74" x="1210.595703"/>
      <use xlink:href="#TimesNewRomanPSMT-69" x="1238.378906"/>
      <use xlink:href="#TimesNewRomanPSMT-6f" x="1266.162109"/>
      <use xlink:href="#TimesNewRomanPSMT-6e" x="1316.162109"/>
      <use xlink:href="#TimesNewRomanPSMT-29" x="1366.162109"/>
     </g>
    </g>
    <g id="patch_143">
     <path d="M 530.211375 130.849187 
L 550.211375 130.849187 
L 550.211375 123.849187 
L 530.211375 123.849187 
z
" style="fill: #f8ac8c"/>
    </g>
    <g id="text_44">
     <!-- invaild reverse(with protection) -->
     <g transform="translate(558.211375 130.849187)scale(0.1 -0.1)">
      <use xlink:href="#TimesNewRomanPSMT-69"/>
      <use xlink:href="#TimesNewRomanPSMT-6e" x="27.783203"/>
      <use xlink:href="#TimesNewRomanPSMT-76" x="77.783203"/>
      <use xlink:href="#TimesNewRomanPSMT-61" x="127.783203"/>
      <use xlink:href="#TimesNewRomanPSMT-69" x="172.167969"/>
      <use xlink:href="#TimesNewRomanPSMT-6c" x="199.951172"/>
      <use xlink:href="#TimesNewRomanPSMT-64" x="227.734375"/>
      <use xlink:href="#TimesNewRomanPSMT-20" x="277.734375"/>
      <use xlink:href="#TimesNewRomanPSMT-72" x="302.734375"/>
      <use xlink:href="#TimesNewRomanPSMT-65" x="336.035156"/>
      <use xlink:href="#TimesNewRomanPSMT-76" x="380.419922"/>
      <use xlink:href="#TimesNewRomanPSMT-65" x="430.419922"/>
      <use xlink:href="#TimesNewRomanPSMT-72" x="474.804688"/>
      <use xlink:href="#TimesNewRomanPSMT-73" x="508.105469"/>
      <use xlink:href="#TimesNewRomanPSMT-65" x="547.021484"/>
      <use xlink:href="#TimesNewRomanPSMT-28" x="591.40625"/>
      <use xlink:href="#TimesNewRomanPSMT-77" x="624.707031"/>
      <use xlink:href="#TimesNewRomanPSMT-69" x="696.923828"/>
      <use xlink:href="#TimesNewRomanPSMT-74" x="724.707031"/>
      <use xlink:href="#TimesNewRomanPSMT-68" x="752.490234"/>
      <use xlink:href="#TimesNewRomanPSMT-20" x="802.490234"/>
      <use xlink:href="#TimesNewRomanPSMT-70" x="827.490234"/>
      <use xlink:href="#TimesNewRomanPSMT-72" x="877.490234"/>
      <use xlink:href="#TimesNewRomanPSMT-6f" x="910.791016"/>
      <use xlink:href="#TimesNewRomanPSMT-74" x="960.791016"/>
      <use xlink:href="#TimesNewRomanPSMT-65" x="988.574219"/>
      <use xlink:href="#TimesNewRomanPSMT-63" x="1032.958984"/>
      <use xlink:href="#TimesNewRomanPSMT-74" x="1077.34375"/>
      <use xlink:href="#TimesNewRomanPSMT-69" x="1105.126953"/>
      <use xlink:href="#TimesNewRomanPSMT-6f" x="1132.910156"/>
      <use xlink:href="#TimesNewRomanPSMT-6e" x="1182.910156"/>
      <use xlink:href="#TimesNewRomanPSMT-29" x="1232.910156"/>
     </g>
    </g>
   </g>
  </g>
 </g>
 <defs>
  <clipPath id="pc9ad4035b9">
   <rect x="39.099375" y="7.2" width="669.6" height="326.16"/>
  </clipPath>
 </defs>
</svg>
